<svg xmlns="http://www.w3.org/2000/svg" xmlns:xlink="http://www.w3.org/1999/xlink" version="1.1" style="" xml:space="preserve" width="297" height="64"><rect id="backgroundrect" width="100%" height="100%" x="0" y="0" fill="none" stroke="none"/>
<style type="text/css">
	.st0{fill:#5E5E5E;}
	.st1{fill:#869C50;}
</style>

<g class="currentLayer" style=""><title>Layer 1</title><g id="svg_1" class="">
	<g id="svg_2">
		<g id="svg_3">
			<path class="st0" d="M14,38.400000381469724 v7.2 c0,3.3 -2.8,6.1 -6.1,6.1 H0.7000000000000003 C0.2999999999999999,51.60000038146973 0,51.400000381469724 0,51.00000038146973 V18.500000381469725 c0,-0.4 0.3000000000000001,-0.7000000000000002 0.7000000000000002,-0.7000000000000002 h7.3 c3.3,0 6.1,2.8 6.1,6.1 v4.8 c0,1.5 -0.5,2.8 -1.4,3.7 c-0.5,0.5 -1,0.9 -1.7000000000000002,1.3 c0.7000000000000002,0.2 1.3,0.6000000000000002 1.7000000000000002,1.1 C13.6,35.60000038146973 14,36.900000381469724 14,38.400000381469724 zM8.4,24.100000381469727 c0,-0.6000000000000002 -0.5,-1.2 -1.2,-1.2 H5.7 v8.2 h1.5 c0.6000000000000002,0 1.2,-0.5 1.2,-1.2 V24.100000381469727 zM8.4,37.60000038146973 c0,-0.6000000000000002 -0.5,-1.2 -1.2,-1.2 H5.7 v10 h1.5 c0.6000000000000002,0 1.2,-0.5 1.2,-1.2 V37.60000038146973 z" id="svg_4"/>
			<path class="st0" d="M32.1,51.60000038146973 h-4.4 c-0.4,0 -0.8,-0.3000000000000001 -0.9,-0.7000000000000002 l-3.5,-11.8 v12 c-0.1,0.3000000000000001 -0.4,0.5 -0.7000000000000002,0.5 h-4.3 c-0.4,0 -0.7000000000000002,-0.3000000000000001 -0.7000000000000002,-0.7000000000000002 V18.500000381469725 c0,-0.4 0.3000000000000001,-0.7000000000000002 0.7000000000000002,-0.7000000000000002 h7.3 c3.3,0 6.1,2.8 6.1,6.1 v7.9 c0,2.4 -1.4,4.4 -3.3,5.4 l4.3,13.8 C32.7,51.400000381469724 32.5,51.60000038146973 32.1,51.60000038146973 zM23.3,32.70000038146973 h1.5 c0.6000000000000002,0 1.2,-0.5 1.2,-1.2 v-7.4 c0,-0.6000000000000002 -0.5,-1.2 -1.2,-1.2 h-1.5 V32.70000038146973 z" id="svg_5"/>
			<path class="st0" d="M41.5,51.00000038146973 c0,0.4 -0.3000000000000001,0.7000000000000002 -0.7000000000000002,0.7000000000000002 h-4.3 c-0.4,0 -0.7000000000000002,-0.3000000000000001 -0.7000000000000002,-0.7000000000000002 V18.500000381469725 c0,-0.4 0.3000000000000001,-0.7000000000000002 0.7000000000000002,-0.7000000000000002 h4.3 c0.4,0 0.7000000000000002,0.3000000000000001 0.7000000000000002,0.7000000000000002 V51.00000038146973 z" id="svg_6"/>
			<path class="st0" d="M59.9,23.900000381469724 v21.7 c0,3.3 -2.8,6.1 -6.1,6.1 h-7.3 c-0.4,0 -0.7000000000000002,-0.3000000000000001 -0.7000000000000002,-0.7000000000000002 V18.500000381469725 c0,-0.4 0.3000000000000001,-0.7000000000000002 0.7000000000000002,-0.7000000000000002 h7.3 C57.1,17.800000381469726 59.9,20.500000381469725 59.9,23.900000381469724 zM54.2,24.100000381469727 c0,-0.6000000000000002 -0.5,-1.2 -1.2,-1.2 h-1.5 v23.5 h1.5 c0.6000000000000002,0 1.2,-0.5 1.2,-1.2 V24.100000381469727 z" id="svg_7"/>
			<path class="st0" d="M77.3,23.500000381469725 v1.5 c0,0.4 -0.3000000000000001,0.8 -0.6000000000000002,0.9 L72.3,27.600000381469727 c-0.3000000000000001,0.1 -0.6000000000000002,-0.1 -0.6000000000000002,-0.5 v-3.3 c0,-0.6000000000000002 -0.5,-1.2 -1.2,-1.2 h-0.4 c-0.6000000000000002,0 -1.2,0.5 -1.2,1.2 V45.60000038146973 c0,0.6000000000000002 0.5,1.2 1.2,1.2 h0.4 c0.6000000000000002,0 1.2,-0.5 1.2,-1.2 v-8.6 h-1.4 v-5.5 h6.3 c0.4,0 0.7000000000000002,0.3000000000000001 0.7000000000000002,0.7000000000000002 v13.7 c0,3.3 -2.8,6.1 -6.1,6.1 h-1.8 c-3.3,0 -6.1,-2.8 -6.1,-6.1 V23.500000381469725 c0,-3.3 2.8,-6.1 6.1,-6.1 h1.8 C74.5,17.400000381469727 77.3,20.200000381469728 77.3,23.500000381469725 z" id="svg_8"/>
			<path class="st0" d="M93,46.70000038146973 v4.3 c0,0.4 -0.3000000000000001,0.7000000000000002 -0.7000000000000002,0.7000000000000002 H81.8 c-0.4,0 -0.7000000000000002,-0.3000000000000001 -0.7000000000000002,-0.7000000000000002 V18.500000381469725 c0,-0.4 0.3000000000000001,-0.7000000000000002 0.7000000000000002,-0.7000000000000002 h10.5 c0.4,0 0.7000000000000002,0.3000000000000001 0.7000000000000002,0.7000000000000002 v4.3 c0,0.4 -0.3000000000000001,0.7000000000000002 -0.7000000000000002,0.7000000000000002 h-5.5 v7 h4.8 c0.4,0 0.7000000000000002,0.3000000000000001 0.7000000000000002,0.7000000000000002 v4.3 c0,0.4 -0.3000000000000001,0.7000000000000002 -0.7000000000000002,0.7000000000000002 h-4.8 v9.9 h5.5 C92.7,46.000000381469725 93,46.30000038146973 93,46.70000038146973 z" id="svg_9"/>
		</g>
	</g>
	<g id="svg_10">
		<g id="svg_11">
			<path class="st0" d="M189.3,46.70000038146973 v4.3 c0,0.4 -0.3000000000000001,0.7000000000000002 -0.7000000000000002,0.7000000000000002 h-10.5 c-0.4,0 -0.7000000000000002,-0.3000000000000001 -0.7000000000000002,-0.7000000000000002 V18.500000381469725 c0,-0.4 0.3000000000000001,-0.7000000000000002 0.7000000000000002,-0.7000000000000002 h10.5 c0.4,0 0.7000000000000002,0.3000000000000001 0.7000000000000002,0.7000000000000002 v4.3 c0,0.4 -0.3000000000000001,0.7000000000000002 -0.7000000000000002,0.7000000000000002 h-5.5 v7 h4.8 c0.4,0 0.7000000000000002,0.3000000000000001 0.7000000000000002,0.7000000000000002 v4.3 c0,0.4 -0.3000000000000001,0.7000000000000002 -0.7000000000000002,0.7000000000000002 h-4.8 v9.9 h5.5 C189,46.000000381469725 189.3,46.30000038146973 189.3,46.70000038146973 z" id="svg_12"/>
			<path class="st0" d="M206,46.70000038146973 v4.3 c0,0.4 -0.3000000000000001,0.7000000000000002 -0.7000000000000002,0.7000000000000002 h-6.5 c0,0 0,0 -0.1,0 h0 h-4.3 c-0.4,0 -0.7000000000000002,-0.3000000000000001 -0.7000000000000002,-0.7000000000000002 V18.500000381469725 c0,-0.4 0.3000000000000001,-0.7000000000000002 0.7000000000000002,-0.7000000000000002 h4.3 c0.4,0 0.7000000000000002,0.3000000000000001 0.7000000000000002,0.7000000000000002 v27.5 h6 C205.7,46.000000381469725 206,46.30000038146973 206,46.70000038146973 z" id="svg_13"/>
			<path class="st0" d="M221.3,46.70000038146973 v4.3 c0,0.4 -0.3000000000000001,0.7000000000000002 -0.7000000000000002,0.7000000000000002 h-10.5 c-0.4,0 -0.7000000000000002,-0.3000000000000001 -0.7000000000000002,-0.7000000000000002 V18.500000381469725 c0,-0.4 0.3000000000000001,-0.7000000000000002 0.7000000000000002,-0.7000000000000002 h10.5 c0.4,0 0.7000000000000002,0.3000000000000001 0.7000000000000002,0.7000000000000002 v4.3 c0,0.4 -0.3000000000000001,0.7000000000000002 -0.7000000000000002,0.7000000000000002 h-5.5 v7 h4.8 c0.4,0 0.7000000000000002,0.3000000000000001 0.7000000000000002,0.7000000000000002 v4.3 c0,0.4 -0.3000000000000001,0.7000000000000002 -0.7000000000000002,0.7000000000000002 h-4.8 v9.9 h5.5 C221,46.000000381469725 221.3,46.30000038146973 221.3,46.70000038146973 z" id="svg_14"/>
			<path class="st0" d="M244.2,18.500000381469725 v32.5 c0,0.4 -0.3000000000000001,0.7000000000000002 -0.7000000000000002,0.7000000000000002 h-4.6 c-0.4,0 -0.7000000000000002,-0.3000000000000001 -0.7000000000000002,-0.7000000000000002 V35.70000038146973 L235,48.20000038146973 c-0.1,0.3000000000000001 -0.4,0.3000000000000001 -0.5,0 l-3.2,-12.5 v15.3 c0,0.4 -0.3000000000000001,0.7000000000000002 -0.7000000000000002,0.7000000000000002 H226 c-0.4,0 -0.7000000000000002,-0.3000000000000001 -0.7000000000000002,-0.7000000000000002 V18.500000381469725 c0,-0.4 0.3000000000000001,-0.7000000000000002 0.7000000000000002,-0.7000000000000002 h4.1 c0.4,0 0.7000000000000002,0.3000000000000001 0.8,0.7000000000000002 l3.8,17.3 l3.8,-17.3 c0.1,-0.3000000000000001 0.4,-0.7000000000000002 0.8,-0.7000000000000002 h4.1 C243.9,17.800000381469726 244.2,18.100000381469727 244.2,18.500000381469725 z" id="svg_15"/>
			<path class="st0" d="M260.4,46.70000038146973 v4.3 c0,0.4 -0.3000000000000001,0.7000000000000002 -0.7000000000000002,0.7000000000000002 h-10.5 c-0.4,0 -0.7000000000000002,-0.3000000000000001 -0.7000000000000002,-0.7000000000000002 V18.500000381469725 c0,-0.4 0.3000000000000001,-0.7000000000000002 0.7000000000000002,-0.7000000000000002 h10.5 c0.4,0 0.7000000000000002,0.3000000000000001 0.7000000000000002,0.7000000000000002 v4.3 c0,0.4 -0.3000000000000001,0.7000000000000002 -0.7000000000000002,0.7000000000000002 h-5.5 v7 h4.8 c0.4,0 0.7000000000000002,0.3000000000000001 0.7000000000000002,0.7000000000000002 v4.3 c0,0.4 -0.3000000000000001,0.7000000000000002 -0.7000000000000002,0.7000000000000002 h-4.8 v9.9 h5.5 C260.1,46.000000381469725 260.4,46.30000038146973 260.4,46.70000038146973 z" id="svg_16"/>
			<path class="st0" d="M279.8,18.500000381469725 v32.5 c0,0.4 -0.3000000000000001,0.7000000000000002 -0.7000000000000002,0.7000000000000002 H276 c-0.4,0 -0.8,-0.3000000000000001 -0.9,-0.6000000000000002 l-5.1,-16 v16 c0,0.4 -0.3000000000000001,0.7000000000000002 -0.7000000000000002,0.7000000000000002 H265 c-0.4,0 -0.7000000000000002,-0.3000000000000001 -0.7000000000000002,-0.7000000000000002 V18.500000381469725 c0,-0.4 0.3000000000000001,-0.7000000000000002 0.7000000000000002,-0.7000000000000002 h3.2 c0.4,0 0.8,0.3000000000000001 0.9,0.6000000000000002 l5,15.5 V18.500000381469725 c0,-0.4 0.3000000000000001,-0.7000000000000002 0.7000000000000002,-0.7000000000000002 h4.3 C279.5,17.800000381469726 279.8,18.100000381469727 279.8,18.500000381469725 z" id="svg_17"/>
			<path class="st0" d="M297,18.500000381469725 v4.3 c0,0.4 -0.3000000000000001,0.7000000000000002 -0.7000000000000002,0.7000000000000002 h-3.4 v27.5 c0,0.4 -0.3000000000000001,0.7000000000000002 -0.7000000000000002,0.7000000000000002 h-4.3 c-0.3000000000000001,0 -0.7000000000000002,-0.3000000000000001 -0.7000000000000002,-0.7000000000000002 V23.400000381469724 h-3.4 c-0.4,0 -0.7000000000000002,-0.3000000000000001 -0.7000000000000002,-0.7000000000000002 v-4.3 c0,-0.4 0.3000000000000001,-0.7000000000000002 0.7000000000000002,-0.7000000000000002 h12.5 C296.7,17.800000381469726 297,18.100000381469727 297,18.500000381469725 z" id="svg_18"/>
		</g>
	</g>
	<path class="st1" d="M167.6,31.900000381469724 c0,17.6 -14.3,31.9 -31.9,31.9 s-31.9,-14.3 -31.9,-31.9 c0,-17.6 14.3,-31.9 31.9,-31.9 S167.6,14.400000381469727 167.6,31.900000381469724 zM120.2,32.900000381469724 c0,2.8 7.7,-3.9 14.8,-4.3 c8.9,-0.4 15.7,7.2 16.4,3.9 l-0.1,-12.3 c0,-1.6 -1.3,-2.8 -2.8,-2.8 h-25.4 c-1.6,0 -2.8,1.3 -2.8,2.8 L120.2,32.900000381469724 zM120.4,43.80000038146973 c0,1.6 1.1,2.8 2.6,2.8 h25.4 c1.6,0 2.6,-1.3 2.6,-2.8 v-6.5 c-3.8,-3 -9.1,-4.9 -15.3,-4.9 c-6.1,0 -11.4,1.8 -15.3,4.7 V43.80000038146973 z" id="svg_19"/>
</g></g></svg>