<svg xmlns="http://www.w3.org/2000/svg" xmlns:xlink="http://www.w3.org/1999/xlink" version="1.1" style="enable-background:new 0 0 301 90;" xml:space="preserve" width="292" height="72"><rect id="backgroundrect" width="100%" height="100%" x="0" y="0" fill="none" stroke="none" class="" style=""/>
<style type="text/css">
	.st0{display:none;fill:#F5C671;}
	.st1{fill:#EAAA39;}
	.st2{fill:#FFFFFF;}
	.st3{fill:#636364;}
</style>


<g class="currentLayer" style=""><title>Layer 1</title><g id="Layer_2" class="">
	<polygon class="st0" points="-166.37869453430176,-162.99672412872314 -145.77868843078613,-196.5967149734497 -84.57869148254395,-208.79672718048096 -47.17868995666504,-196.0967149734497 -31.778688430786133,-155.49672412872314 -28.57868766784668,-161.99672412872314 37.32131004333496,-173.69672107696533 64.42130851745605,-163.39671802520752 87.82131004333496,-104.59672260284424 66.82131004333496,-59.19672107696533 87.82131004333496,-2.696721076965332 65.82131004333496,45.90327739715576 27.521310806274414,48.703280448913574 8.821311950683594,92.20328044891357 -71.07869148254395,98.70328044891357 -88.77868843078613,92.20328044891357 -105.17868995666504,54.80327892303467 -114.97868537902832,71.10328197479248 -180.37869453430176,78.60328197479248 -210.27868843078613,71.10328197479248 -237.87869453430176,12.303278923034668 -212.6786823272705,-40.49672031402588 -237.87869453430176,-104.59672260284424 -209.87869453430176,-153.5967149734497 " id="svg_1"/>
	<g id="svg_2">
		<circle class="st1" cx="37.12131309509277" cy="36.80327892303467" r="34.900001525878906" id="svg_3"/>
		<path class="st2" d="M24.221311569213867,44.00327892303467 v0.2 l0,0 L24.221311569213867,44.00327892303467 L24.221311569213867,44.00327892303467 z" id="svg_4"/>
		<path class="st2" d="M24.221311569213867,58.30327892303467 l13,7.6 l13,-7.5 l0,-14.4 l12.2,-7 l0,-15 l-13,-7.6 l-12.3,7.1 l-12.2,-7.1 l-13,7.5 l0,15 l12.3,7.1 l0,0 M37.32131156921387,37.40327892303467 l10.8,6.3 L47.92131156921387,43.80327892303467 l-10.7,6.1 L26.621311569213866,43.80327892303467 l-0.2,-0.1 L37.32131156921387,37.40327892303467 zM36.521311569213864,23.90327892303467 l0,12.3 l-10.7,6.1 v-0.2 l0,-12.1 L36.521311569213864,23.90327892303467 L36.521311569213864,23.90327892303467 zM13.521311569213868,36.00327892303467 l0,-13.2 l11.5,-6.6 l10.8,6.3 l-11.6,6.7 l0,13 L13.521311569213868,36.00327892303467 zM48.72131156921387,57.50327892303467 l-11.5,6.6 l-11.4,-6.6 l0,-12.3 l11.4,6.6 L48.72131156921387,45.103278923034665 L48.72131156921387,57.50327892303467 zM48.72131156921387,42.20327892303467 v0.2 l-10.7,-6.2 l0,-12.3 l0,0 L48.72131156921387,30.103278923034665 L48.72131156921387,42.20327892303467 zM60.92131156921387,36.103278923034665 l-10.7,6.1 l0,-13 l-11.7,-6.8 l10.9,-6.3 L61.021311569213864,22.803278923034668 L60.92131156921387,36.103278923034665 z" id="svg_5"/>
	</g>
	<g id="svg_6">
		<path class="st3" d="M89.72131156921387,28.90327892303467 c2.9,0 4.9,1.5 5.9,3.5 l-1,0.5 c-1.1,-2.2 -3.2,-3 -5,-3 c-4.1,0 -6.4,3.6 -6.4,7 c0,3.8 2.8,7.2 6.4,7.2 c1.9,0 4.2,-1 5.3,-3.1 l1,0.5 c-1.1,2.4 -3.9,3.7 -6.4,3.7 c-4.4,0 -7.5,-4.2 -7.5,-8.3 C82.12131156921387,33.00327892303467 84.92131156921387,28.90327892303467 89.72131156921387,28.90327892303467 z" id="svg_7"/>
		<path class="st3" d="M108.12131156921387,45.103278923034665 h-1.1 v-6.6 c0,-2.9 -1,-4.4 -2.9,-4.4 c-1.9,0 -3.9,1.6 -4.4,3.6 v7.3 h-1.1 V28.50327892303467 h1.1 v7.6 c1,-1.8 2.8,-3 4.8,-3 c2.6,0 3.7,2 3.7,5.2 V45.103278923034665 z" id="svg_8"/>
		<path class="st3" d="M111.32131156921386,40.103278923034665 v-6.8 h1.1 v6.6 c0,2.9 1,4.3 3,4.3 s3.9,-1.4 4.6,-3.6 v-7.4 h1.1 v10.2 c0,0.4 0.1,0.6000000000000001 0.5,0.6000000000000001 v1 c-0.2,0 -0.30000000000000004,0 -0.4,0 c-0.6000000000000001,0 -1.1,-0.4 -1.1,-1 v-1.8 c-1,1.9 -3,3 -5,3 C112.62131156921387,45.30327892303467 111.32131156921386,43.50327892303467 111.32131156921386,40.103278923034665 z" id="svg_9"/>
		<path class="st3" d="M130.32131156921386,34.30327892303467 c-2.1,0.1 -3.8,1.3 -4.4,3.4 v7.4 H124.72131156921387 V33.30327892303467 h1.1 v2.9 c0.8,-1.7000000000000002 2.3,-2.8 3.8,-2.9 c0.30000000000000004,0 0.5,0 0.7000000000000001,0 V34.30327892303467 z" id="svg_10"/>
		<path class="st3" d="M137.42131156921386,33.103278923034665 c2.1,0 3.8,1 4.7,2.7 l-1.1,0.4 c-0.7000000000000001,-1.3 -2.1,-2.1 -3.6,-2.1 c-2.6,0 -4.6,2.2 -4.6,5 c0,2.8 2.1,5.1 4.6,5.1 c1.6,0 3.3,-1 3.7,-2.2 l1.1,0.30000000000000004 c-0.6000000000000001,1.7000000000000002 -2.6,2.9 -4.8,2.9 c-3.3,0 -5.8,-2.8 -5.8,-6.2 C131.62131156921387,35.80327892303467 134.12131156921387,33.103278923034665 137.42131156921386,33.103278923034665 z" id="svg_11"/>
		<path class="st3" d="M154.42131156921386,45.103278923034665 h-1.1 v-6.6 c0,-2.9 -1,-4.4 -2.9,-4.4 c-1.9,0 -3.9,1.6 -4.4,3.6 v7.3 h-1.1 V28.50327892303467 h1.1 v7.6 c1,-1.8 2.8,-3 4.8,-3 c2.6,0 3.7,2 3.7,5.2 V45.103278923034665 z" id="svg_12"/>
		<path class="st3" d="M163.02131156921388,37.00327892303467 c0,-4.3 3.3,-8.1 7.5,-8.1 c4.5,0 7.5,4.1 7.5,8.1 c0,4.3 -3.2,8.1 -7.5,8.1 C166.02131156921388,45.103278923034665 163.02131156921388,41.103278923034665 163.02131156921388,37.00327892303467 zM170.52131156921388,44.103278923034665 c3.8,0 6.4,-3.6 6.4,-7.1 c0,-3.7 -2.7,-7.1 -6.4,-7.1 c-3.8,0 -6.4,3.6 -6.4,7.1 C164.12131156921387,40.70327892303467 166.82131156921386,44.103278923034665 170.52131156921388,44.103278923034665 z" id="svg_13"/>
		<path class="st3" d="M181.42131156921386,35.603278923034665 h-1.7000000000000002 v-0.9 h1.7000000000000002 v-1.1 c0,-2.2 1.1,-4.4 3.4,-4.4 c1.2,0 2,0.30000000000000004 2.5,0.6000000000000001 c0.6000000000000001,-0.9 1.7000000000000002,-1.5 3.1,-1.5 c1.6,0 2.8,0.7000000000000001 3.2,1 l-0.6000000000000001,0.8 c-0.4,-0.4 -1.4,-0.7000000000000001 -2.5,-0.7000000000000001 c-2.1,0 -2.9,1.9 -2.9,3.6 v1.8 h5.8 v10.4 h-1.1 v-9.5 h-4.6 v9.5 h-1.1 v-9.5 h-3.9 v9.5 h-1.1 V35.603278923034665 zM186.42131156921386,34.70327892303467 v-1.7000000000000002 c0,-0.7000000000000001 0.2,-1.6 0.5,-2.3 c-0.5,-0.4 -1.3,-0.5 -1.9,-0.5 c-1.9,0 -2.5,2 -2.5,3.4 v1.1 H186.42131156921386 z" id="svg_14"/>
		<path class="st3" d="M201.82131156921386,33.103278923034665 c2.1,0 3.8,1 4.7,2.7 l-1.1,0.4 c-0.7000000000000001,-1.3 -2.1,-2.1 -3.6,-2.1 c-2.6,0 -4.6,2.2 -4.6,5 c0,2.8 2.1,5.1 4.6,5.1 c1.6,0 3.3,-1 3.7,-2.2 l1.1,0.30000000000000004 c-0.6000000000000001,1.7000000000000002 -2.6,2.9 -4.8,2.9 c-3.3,0 -5.8,-2.8 -5.8,-6.2 C196.02131156921388,35.80327892303467 198.52131156921388,33.103278923034665 201.82131156921386,33.103278923034665 z" id="svg_15"/>
		<path class="st3" d="M208.42131156921386,39.103278923034665 c0,-3.3 2.5,-6 5.8,-6 c3.3,0 5.7,2.8 5.8,6 c0,0.2 0,0.4 0,0.5 h-10.3 c0.2,2.7 2.2,4.8 4.7,4.8 c1.7000000000000002,0 3.3,-0.9 3.8,-2.3 l1,0.30000000000000004 c-0.7000000000000001,1.7000000000000002 -2.7,2.9 -4.9,2.9 C210.92131156921386,45.30327892303467 208.42131156921386,42.50327892303467 208.42131156921386,39.103278923034665 zM218.82131156921386,38.70327892303467 c-0.2,-2.8 -2.2,-4.7 -4.7,-4.7 c-2.5,0 -4.5,2 -4.6,4.7 H218.82131156921386 z" id="svg_16"/>
		<path class="st3" d="M227.62131156921387,37.00327892303467 c0,-4.3 3.3,-8.1 7.5,-8.1 c4.5,0 7.5,4.1 7.5,8.1 c0,4.3 -3.2,8.1 -7.5,8.1 C230.72131156921387,45.103278923034665 227.62131156921387,41.103278923034665 227.62131156921387,37.00327892303467 zM235.22131156921387,44.103278923034665 c3.8,0 6.4,-3.6 6.4,-7.1 c0,-3.7 -2.7,-7.1 -6.4,-7.1 c-3.8,0 -6.4,3.6 -6.4,7.1 C228.82131156921386,40.70327892303467 231.42131156921386,44.103278923034665 235.22131156921387,44.103278923034665 z" id="svg_17"/>
		<path class="st3" d="M255.02131156921388,45.103278923034665 h-1.1 v-6.6 c0,-3 -0.8,-4.4 -2.7,-4.4 c-2,0 -4,1.6 -4.6,3.6 v7.3 h-1.1 V33.30327892303467 h1 v2.8 c1,-1.8 3,-3 5.1,-3 c2.6,0 3.5,1.9 3.5,5.2 V45.103278923034665 z" id="svg_18"/>
		<path class="st3" d="M258.42131156921386,28.50327892303467 h1.2 v14.2 c0,0.9 0.5,1.4 1.4,1.4 c0.30000000000000004,0 0.9,-0.1 1.2,-0.2 l0.2,0.9 c-0.5,0.2 -1.4,0.4 -1.9,0.4 c-1.3,0 -2.1,-0.8 -2.1,-2.1 V28.50327892303467 z" id="svg_19"/>
		<path class="st3" d="M264.0213115692139,30.603278923034665 v-2.1 h1.1 v2.1 H264.0213115692139 zM264.0213115692139,45.103278923034665 V33.30327892303467 h1.1 v11.8 H264.0213115692139 z" id="svg_20"/>
		<path class="st3" d="M278.22131156921387,45.103278923034665 h-1.1 v-6.6 c0,-3 -0.8,-4.4 -2.7,-4.4 c-2,0 -4,1.6 -4.6,3.6 v7.3 h-1.1 V33.30327892303467 h1 v2.8 c1,-1.8 3,-3 5.1,-3 c2.6,0 3.5,1.9 3.5,5.2 V45.103278923034665 z" id="svg_21"/>
		<path class="st3" d="M280.8213115692139,39.103278923034665 c0,-3.3 2.5,-6 5.8,-6 c3.3,0 5.7,2.8 5.8,6 c0,0.2 0,0.4 0,0.5 h-10.3 c0.2,2.7 2.2,4.8 4.7,4.8 c1.7000000000000002,0 3.3,-0.9 3.8,-2.3 l1,0.30000000000000004 c-0.7000000000000001,1.7000000000000002 -2.7,2.9 -4.9,2.9 C283.3213115692139,45.30327892303467 280.8213115692139,42.50327892303467 280.8213115692139,39.103278923034665 zM291.22131156921387,38.70327892303467 c-0.2,-2.8 -2.2,-4.7 -4.7,-4.7 c-2.5,0 -4.5,2 -4.6,4.7 H291.22131156921387 z" id="svg_22"/>
	</g>
</g><g id="Layer_1" class="">
</g></g></svg>