<svg xmlns="http://www.w3.org/2000/svg" xmlns:xlink="http://www.w3.org/1999/xlink" version="1.1" style="" xml:space="preserve" width="298" height="54"><rect id="backgroundrect" width="100%" height="100%" x="0" y="0" fill="none" stroke="none"/>
<style type="text/css">
	.st0{fill:#58595B;}
	.st1{fill:url(#SVGID_1_);}
	.st2{fill:url(#SVGID_2_);}
	.st3{fill:url(#SVGID_3_);}
	.st4{fill:url(#SVGID_4_);}
	.st5{fill:#1B344D;}
</style>


<g class="currentLayer" style=""><title>Layer 1</title><g id="svg_1" class="">
	<g id="svg_2">
		<path class="st0" d="M74.50000004768371,42.80000534057617 V11.30000534057617 h18.4 V14.400005340576172 h-15 v10.9 h13.5 V28.400005340576172 H77.90000004768372 v11.3 h15 v3.1 H74.50000004768371 z" id="svg_3"/>
		<path class="st0" d="M104.10000004768372,33.90000534057617 v-2.9 h10.3 v2.9 H104.10000004768372 z" id="svg_4"/>
		<path class="st0" d="M130.10000004768372,39.70000534057617 h17.6 v3.1 h-22.8 l-0.2,-0.5 L142.50000004768373,14.400005340576172 h-16.7 v-3.1 h21.9 l0.2,0.5 L130.10000004768372,39.70000534057617 z" id="svg_5"/>
		<path class="st0" d="M161.00000004768373,42.80000534057617 V11.30000534057617 h18.4 V14.400005340576172 h-15 v10.9 h13.5 V28.400005340576172 h-13.5 v11.3 h15 v3.1 H161.00000004768373 z" id="svg_6"/>
		<path class="st0" d="M210.9000000476837,42.80000534057617 L196.70000004768372,27.400005340576172 v15.4 h-3.4 V11.30000534057617 h3.4 v14.6 l13.7,-14.6 h4.3 l-14.6,15.3 l15.3,16.2 H210.9000000476837 z" id="svg_7"/>
		<path class="st0" d="M227.9000000476837,42.80000534057617 V11.30000534057617 h3.4 v31.5 H227.9000000476837 z" id="svg_8"/>
		<path class="st0" d="M247.00000004768373,42.80000534057617 V11.30000534057617 h18.4 V14.400005340576172 h-15 v10.9 h13.5 V28.400005340576172 h-13.5 v11.3 h15 v3.1 H247.00000004768373 z" id="svg_9"/>
		<path class="st0" d="M279.30000004768374,42.80000534057617 V11.30000534057617 h3.4 v28.4 h15 v3.1 H279.30000004768374 z" id="svg_10"/>
	</g>
</g><g id="svg_11" class="">
	<radialGradient id="SVGID_1_" cx="17.837900161743164" cy="34.637699127197266" r="8.916899681091309" gradientUnits="userSpaceOnUse" transform="translate(-1.7999999523162842,-18.599994659423828) ">
		<stop offset="0" style="stop-color:#B4D569"/>
		<stop offset="0.5828" style="stop-color:#9CCC58"/>
		<stop offset="1" style="stop-color:#6AB652"/>
	</radialGradient>
	<path class="st1" d="M7.100000047683716,7.100005340576171 c0,0 2.7,18.4 10.7,17.8 c1.4,0.1 2.8,-0.6000000000000001 4.1,-1.6 c-4.5,-4.6 -10.1,-11.6 -10.1,-11.6 s7,5.5 11.6,10.1 c1,-1.3 1.6,-2.7 1.6,-4.1 C25.600000047683714,9.80000534057617 7.100000047683716,7.100005340576171 7.100000047683716,7.100005340576171 z" id="svg_12"/>
	<radialGradient id="SVGID_2_" cx="39.91080093383789" cy="56.71099853515625" r="8.916899681091309" gradientUnits="userSpaceOnUse" transform="translate(-1.7999999523162842,-18.599994659423828) ">
		<stop offset="0" style="stop-color:#B4D569"/>
		<stop offset="0.5828" style="stop-color:#9CCC58"/>
		<stop offset="1" style="stop-color:#6AB652"/>
	</radialGradient>
	<path class="st2" d="M47.00000004768371,47.000005340576166 c0,0 -18.4,-2.7 -17.8,-10.7 c-0.1,-1.4 0.6000000000000001,-2.8 1.6,-4.1 c4.6,4.5 11.6,10.1 11.6,10.1 S36.80000004768372,35.40000534057617 32.200000047683716,30.80000534057617 c1.3,-1 2.7,-1.6 4.1,-1.6 C44.40000004768372,28.600005340576175 47.00000004768371,47.000005340576166 47.00000004768371,47.000005340576166 z" id="svg_13"/>
	<radialGradient id="SVGID_3_" cx="39.91080093383789" cy="34.637699127197266" r="8.916899681091309" gradientUnits="userSpaceOnUse" transform="translate(-1.7999999523162842,-18.599994659423828) ">
		<stop offset="0" style="stop-color:#B4D569"/>
		<stop offset="0.5828" style="stop-color:#9CCC58"/>
		<stop offset="1" style="stop-color:#6AB652"/>
	</radialGradient>
	<path class="st3" d="M47.00000004768371,7.100005340576171 c0,0 -18.4,2.7 -17.8,10.7 c-0.1,1.4 0.6000000000000001,2.8 1.6,4.1 c4.6,-4.5 11.6,-10.1 11.6,-10.1 S36.80000004768372,18.80000534057617 32.200000047683716,23.400005340576172 c1.3,1 2.7,1.6 4.1,1.6 C44.40000004768372,25.600005340576175 47.00000004768371,7.100005340576171 47.00000004768371,7.100005340576171 z" id="svg_14"/>
	<radialGradient id="SVGID_4_" cx="17.837900161743164" cy="56.71110153198242" r="8.916899681091309" gradientUnits="userSpaceOnUse" transform="translate(-1.7999999523162842,-18.599994659423828) ">
		<stop offset="0" style="stop-color:#B4D569"/>
		<stop offset="0.5828" style="stop-color:#9CCC58"/>
		<stop offset="1" style="stop-color:#6AB652"/>
	</radialGradient>
	<path class="st4" d="M7.100000047683716,47.000005340576166 c0,0 2.7,-18.4 10.7,-17.8 c1.4,-0.1 2.8,0.6000000000000001 4.1,1.6 C17.400000047683715,35.40000534057617 11.800000047683715,42.30000534057617 11.800000047683715,42.30000534057617 s7,-5.5 11.6,-10.1 c1,1.3 1.6,2.7 1.6,4.1 C25.600000047683714,44.40000534057617 7.100000047683716,47.000005340576166 7.100000047683716,47.000005340576166 z" id="svg_15"/>
	<path class="st5" d="M4.768371586472142e-8,27.100005340576175 c0,0 8.9,6.7 12.1,3 c0.7000000000000001,-0.7000000000000001 1.1,-1.8 1.1,-3 c0,-1.2 -0.30000000000000004,-2.3 -1.1,-3 C9.000000047683717,20.400005340576172 4.768371586472142e-8,27.100005340576175 4.768371586472142e-8,27.100005340576175 z" id="svg_16"/>
	<path class="st5" d="M54.100000047683714,27.100005340576175 c0,0 -8.9,6.7 -12.1,3 c-0.7000000000000001,-0.7000000000000001 -1.1,-1.8 -1.1,-3 c0,-1.2 0.30000000000000004,-2.3 1.1,-3 C45.200000047683716,20.400005340576172 54.100000047683714,27.100005340576175 54.100000047683714,27.100005340576175 z" id="svg_17"/>
	<path class="st5" d="M27.100000047683714,0.0000053405761732960855 c0,0 -6.7,8.9 -3,12.1 c0.7000000000000001,0.7000000000000001 1.8,1.1 3,1.1 c1.2,0 2.3,-0.30000000000000004 3,-1.1 C33.80000004768372,8.900005340576172 27.100000047683714,0.0000053405761732960855 27.100000047683714,0.0000053405761732960855 z" id="svg_18"/>
	<path class="st5" d="M27.100000047683714,54.100005340576175 c0,0 -6.7,-8.9 -3,-12.1 c0.7000000000000001,-0.7000000000000001 1.8,-1.1 3,-1.1 c1.2,0 2.3,0.30000000000000004 3,1.1 C33.80000004768372,45.20000534057617 27.100000047683714,54.100005340576175 27.100000047683714,54.100005340576175 z" id="svg_19"/>
</g></g></svg>