<svg xmlns="http://www.w3.org/2000/svg" xmlns:xlink="http://www.w3.org/1999/xlink" width="450" height="113" version="1.1" xml:space="preserve" style="fill-rule: evenodd; clip-rule: evenodd; stroke-linejoin: round; stroke-miterlimit: 1.41421;"><rect id="backgroundrect" width="100%" height="100%" x="0" y="0" fill="none" stroke="none"/><defs><linearGradient id="_Linear1" x1="0" y1="0" x2="1" y2="0" gradientUnits="userSpaceOnUse" gradientTransform="matrix(106.213,216.59,-216.59,106.213,118.098,-15.357)"><stop offset="0%" style="stop-color:#008ca9;stop-opacity:1"/><stop offset="100%" style="stop-color:#fff5be;stop-opacity:1"/></linearGradient><linearGradient id="_Linear2" x1="0" y1="0" x2="1" y2="0" gradientUnits="userSpaceOnUse" gradientTransform="matrix(106.259,216.684,-216.684,106.259,123.225,-17.8903)"><stop offset="0%" style="stop-color:#008ca9;stop-opacity:1"/><stop offset="100%" style="stop-color:#fff5be;stop-opacity:1"/></linearGradient><linearGradient id="_Linear3" x1="0" y1="0" x2="1" y2="0" gradientUnits="userSpaceOnUse" gradientTransform="matrix(106.24,216.646,-216.646,106.24,53.6139,16.2549)"><stop offset="0%" style="stop-color:#008ca9;stop-opacity:1"/><stop offset="100%" style="stop-color:#fff5be;stop-opacity:1"/></linearGradient></defs><g class="currentLayer" style=""><title>Layer 1</title><g id="Ekklesia_360" class=""><g id="svg_1"><g id="svg_2"><path d="M112.52396191406251,2.999991127014159 l-4.9,0 l-0.1,1.1 l1.8,0 l-0.6000000000000001,5 l1.3,0.1 l0.6000000000000001,-5.1 l1.8,0 l0.1,-1.1 z" style="fill:url(#_Linear1);fill-rule:nonzero;" id="svg_3"/><path d="M120.8239619140625,2.999991127014159 l-1.8,0 l-2.1,4.2 l-1.1,-4.2 l-1.9,0 l-0.7000000000000001,6.2 l1.2,0 l0.6000000000000001,-4.7 l1.2,4.7 l0.9,0 l2.3,-4.7 l-0.6000000000000001,4.7 l1.3,0 l0.7000000000000001,-6.2 z" style="fill:url(#_Linear2);fill-rule:nonzero;" id="svg_4"/></g><path d="M57.0239619140625,101.99999112701416 c-12.6,0.9 -26.1,-2.2 -34.2,-11 c-8.1,-8.8 -12.2,-21.3 -10.6,-33.9 c1.5,-12.6 8.6,-25.2 18.9,-33.7 c9.8,-8.2 22.4,-12.4 34.3,-11.8 c8.5,0.7000000000000001 16.5,4 22,9.5 c6.6,6.5 9.7,16.3 8,26.2 c-1.2,8.3 -5.9,16.3 -12.4,22.2 l-0.1,0 c-11.5,10.7 -26.7,10.4 -32,9.5 c-3.7,-0.6000000000000001 -8.1,-3.1 -8.1,-7.2 c0,-2.6 2.3,-7 6.9,-8.6 c4.6,-1.6 13.3,-1.7000000000000002 19.5,-1.7000000000000002 c6.2,0 11.6,-11.6 3.8,-11.6 c-7.9,0 -18.4,0.1 -21.1,-0.9 c-2.2,-0.8 -5.9,-3.1 -5.4,-7 c0.1,-0.7000000000000001 0.5,-3.5 3,-5.4 c8.1,-6.1 27.7,1.4 27.7,1.4 l4.4,-10.7 c-0.1,-0.1 -12.4,-8.5 -29.2,-4.6 c-17.2,3.9 -20.3,16 -20.8,17.8 c-1.1,4 -0.30000000000000004,9.2 4.9,15.6 c-6.7,3.8 -9,10.8 -9.5,14.6 c-2.6,20.1 26,28.1 50.8,15.9 c2.1,-1 23.7,-11.1 29.4,-37.5 c2.9,-13.4 -1.3,-27.2 -10.2,-36.3 c-7.4,-7.2 -18.3,-12.8 -35.2,-12.8 c-10.8,0 -26.2,5.7 -36.9,14.4 c-13,10.4 -21.9,25.8 -24.2,41.4 c-5.2,31.9 18.2,58.1 51.3,56.8 c21.2,-0.9 54.3,-19.2 58.5,-50.9 c-9.9,23.2 -29.2,37.8 -53.5,40.3 z" style="fill:url(#_Linear3);fill-rule:nonzero;" id="svg_5"/></g><g id="svg_6"><path d="M143.2239619140625,62.29999112701417 c0.1,5.5 2.9,8 7.4,8 c3,0 6.3,-1 9.3,-2.2 l0.8,6.2 c-3.1,1.3 -7.2,2.1 -11.2,2.1 c-8.3,0 -13.3,-5.7 -13.3,-14.2 c0,-11.1 6.6,-21 18.8,-21 c6.2,0 10.9,3 10.9,8.9 c0,7 -7.2,12.4 -18.3,12.4 c-1.7000000000000002,0.1 -3.7,-0.1 -4.4,-0.2 zM144.0239619140625,56.599991127014164 l3.6,0 c7.2,0 11.3,-2.8 11.3,-6.1 c0,-2 -1.8,-3 -4.6,-3 c-4.8,0 -8.7,3.7 -10.3,9.1 z" style="fill:#172630;fill-rule:nonzero;" id="svg_7"/><path d="M239.5239619140625,24.999991127014162 l7,0 l-8,50.9 l-7,0 l8,-50.9 z" style="fill:#172630;fill-rule:nonzero;" id="svg_8"/><path d="M253.5239619140625,62.29999112701417 c0.1,5.5 2.9,8 7.4,8 c3,0 6.3,-1 9.3,-2.2 l0.8,6.2 c-3.1,1.3 -7.2,2.1 -11.2,2.1 c-8.3,0 -13.3,-5.7 -13.3,-14.2 c0,-11.1 6.6,-21 18.8,-21 c6.2,0 10.9,3 10.9,8.9 c0,7 -7.2,12.4 -18.3,12.4 c-1.6,0.1 -3.6,-0.1 -4.4,-0.2 zM254.32396191406252,56.599991127014164 l3.6,0 c7.2,0 11.3,-2.8 11.3,-6.1 c0,-2 -1.8,-3 -4.6,-3 c-4.7,0 -8.6,3.7 -10.3,9.1 z" style="fill:#172630;fill-rule:nonzero;" id="svg_9"/><path d="M288.2239619140625,70.49999112701416 c3.9,0 6.5,-1.7000000000000002 6.5,-3.9 c0,-1.5 -1.2,-2.7 -4.4,-4.6 l-3.5,-2.1 c-4.2,-2.5 -6.5,-5.1 -6.5,-9.3 c0,-5.3 3.9,-9.5 12.5,-9.5 c3.9,0 7.6,1.1 11.1,2.5 l-1.9,5.6 c-3,-1.1 -6.4,-2.2 -9.7,-2.2 c-3.1,0 -5,1.5 -5,3.6 c0,1.8 1.3,3 3.7,4.4 l3.5,2.1 c4.6,2.7 7.2,5.4 7.2,9.6 c0,6 -6,9.8 -13.9,9.8 c-3.8,0 -7.4,-0.9 -10.3,-1.9 l1.4,-6.1 c2.4,0.9 5.8,2 9.3,2 z" style="fill:#172630;fill-rule:nonzero;" id="svg_10"/><path d="M312.1239619140625,41.59999112701416 l7,0 l-5.4,34.4 l-7,0 l5.4,-34.4 zM316.9239619140625,27.099991127014157 c2.5,0 4.6,2.1 4.6,4.6 c0,2.5 -2.1,4.6 -4.6,4.6 c-2.5,0 -4.6,-2.1 -4.6,-4.6 c0,-2.5 2.1,-4.6 4.6,-4.6 z" style="fill:#172630;fill-rule:nonzero;" id="svg_11"/><path d="M352.1239619140625,75.79999112701417 c0,0 -1.4,0.4 -3.4,0.4 c-4.2,0 -6.5,-1.6 -7.4,-5.4 c-2.8,3.8 -6.6,5.5 -10.7,5.5 c-6.6,0 -9.7,-4.1 -9.7,-9.1 c0,-6.5 6.6,-11.7 16.1,-11.7 c1.9,0 3.6,0.1 5.4,0.4 c0.30000000000000004,-2.1 0.5,-3.2 0.5,-4.2 c0,-3.1 -1.7000000000000002,-4.4 -4.8,-4.4 c-3.7,0 -7.4,0.9 -11.4,2 l0,-6.2 c3.7,-0.9 7.7,-1.9 12.4,-1.9 c7.3,0 11,3.1 11,9.3 c0,1.1 -0.2,2.9 -0.5,5 l-1.4,8.6 c-0.2,1.2 -0.30000000000000004,2.4 -0.30000000000000004,2.9 c0,2.1 1,3.3 3,3.3 c1.3,0 2.9,-0.2 2.9,-0.2 l-1.7000000000000002,5.7 zM341.4239619140625,61.29999112701417 c-1.5,-0.2 -3.1,-0.4 -4.5,-0.4 c-4.8,0 -9.1,2.1 -9.1,6 c0,1.9 1.5,3.7 4,3.7 c3.6,0 8.5,-2.4 9.6,-9.3 z" style="fill:#172630;fill-rule:nonzero;" id="svg_12"/><path d="M199.8239619140625,41.09999112701416 l-8.8,0 l-12.7,13 l4.6,-29.1 l-7,0 l-8.1,51 l7,0 l2.8,-17.3 l9.9,17.3 l7.5,0 l-11.1,-18.8 l15.9,-16.1 z" style="fill:#172630;" id="svg_13"/><path d="M231.82396191406252,41.09999112701416 l-8.9,0 l-12.7,13 l4.6,-29.1 l-7,0 l-8.1,51 l7.1,0 l2.7,-17.3 l10,17.3 l7.4,0 l-11.1,-18.8 l16,-16.1 z" style="fill:#172630;" id="svg_14"/></g><g id="svg_15"><path d="M417.1239619140625,38.19999112701416 c-9.7,2 -17.9,7.3 -20.9,15.8 c2.8,-2.8 6.5,-4.3 9.7,-4.3 c6.6,0 10.9,3.7 10.9,10.8 c0,9.2 -7.5,16 -15.2,16 c-7.7,0 -13,-5.2 -13,-14 c0,-15.8 12,-26.8 27,-29.6 l1.5,5.3 zM395.3239619140625,64.59999112701416 c0,3.6 3.1,6.1 6.6,6.1 c4.3,0 8.8,-4.2 8.8,-10.2 c0,-3 -1.8,-5.4 -5.4,-5.4 c-5.4,0.1 -10,4.4 -10,9.5 z" style="fill:#9d9fa1;fill-rule:nonzero;" id="svg_16"/><path d="M437.8239619140625,40.59999112701416 c-10.4,0 -18.2,9.4 -18.2,21.8 c0,8.7 4.7,14.1 12.2,14.1 c10.4,0 18.3,-9.4 18.3,-21.9 c-0.1,-8.6 -4.8,-14 -12.3,-14 zM432.1239619140625,70.99999112701416 c-5.2,0 -5.9,-5.4 -5.9,-8.7 c0,-9.2 5.9,-16.1 11.2,-16.1 c5,0 6,4.7 6,8.6 c0,9.2 -6,16.2 -11.3,16.2 z" style="fill:#9d9fa1;fill-rule:nonzero;" id="svg_17"/><path d="M379.4239619140625,59.69999112701416 c4.3,-2.4 6.8,-6 6.8,-10.1 c0,-5.9 -3.9,-9.5 -10.3,-9.5 c-3.8,0 -7.9,1 -10.5,1.9 l-0.30000000000000004,0.1 l0,6.2 l0.5,-0.2 c3.6,-1.2 6.6,-1.8 9.5,-1.8 c3.2,0 4.8,1.1 4.8,3.3 c0,4.1 -4.8,7.3 -10.7,7.3 l-2.5,0 l-0.4,0 l-0.1,0.4 l-0.8,5.2 l-0.1,0.5 l4.4,0 c5.5,0 8.8,2 8.8,5.4 c0,4.3 -3.9,7.6 -9.1,7.6 c-4.8,0 -8.9,-1.5 -11.3,-2.7 c0,0.2 -1.5,5.7 -1.5,5.7 c2.5,1.4 6.8,3.2 12.4,3.2 c7.7,0 15.9,-4.3 15.9,-13.7 c0.1,-3.7 -2,-6.8 -5.5,-8.8 z" style="fill:#9d9fa1;fill-rule:nonzero;" id="svg_18"/></g></g></g></svg>