<svg xmlns="http://www.w3.org/2000/svg" xmlns:xlink="http://www.w3.org/1999/xlink" width="450" height="103" version="1.1" xml:space="preserve" style="fill-rule: evenodd; clip-rule: evenodd; stroke-linejoin: round; stroke-miterlimit: 1.41421;"><rect id="backgroundrect" width="100%" height="100%" x="0" y="0" fill="none" stroke="none"/><g class="currentLayer" style=""><title>Layer 1</title><g id="EasyTithe" class=""><g id="svg_1"><path d="M8.79999978637695,63.299999755859375 c2.3,5.2 9.6,13.2 20.1,13.2 c8.2,0 15.3,-4.3 21.4,-9.4 l0,7.9 c-5,5 -14,8 -21,8 c-17.5,0.1 -29.3,-13.1 -29.3,-30.3 c0,-17.2 12.6,-29 29.6,-29 c10.4,0 19,6.7 22.3,13.2 l-43.1,26.4 zM41.599999786376955,35.19999975585937 c-2.6,-2.8 -6.9,-5 -12.1,-5 c-13.3,0 -23,9.8 -23,22.6 c0,1.5 0.1,3.2 0.5,4.6 l34.6,-22.2 z" style="fill:#808184;fill-rule:nonzero;" id="svg_2"/><path d="M63.599999786376955,27.099999755859372 c5.2,-2.1 10.8,-3.4 16.5,-3.4 c8.8,0 17.7,4.6 17.7,14.3 l0,43.7 l-6.5,1.4 l0,-7.1 l-0.2,0 c-2.3,4.2 -7.2,7.1 -13.9,7.1 c-11.6,0 -21.6,-7.4 -21.6,-19.7 c0,-12.5 8.2,-21.4 20.8,-21.4 c5.6,0 11.1,3.2 14.9,6.5 l0,-9.5 c0,-4.7 -5.8,-8.7 -13.3,-8.7 c-5.4,0 -11.5,2.8 -16.5,4.5 l2.1,-7.7 zM77.59999978637696,76.49999975585938 c8,0 13.7,-6 13.7,-14 c0,-8.4 -5.8,-14.1 -13.9,-14.1 c-8.7,0 -15.2,5.9 -15.2,14.9 c0,8.4 7.9,13.2 15.4,13.2 z" style="fill:#808184;fill-rule:nonzero;" id="svg_3"/><path d="M110.79999978637696,70.29999975585937 c4.3,4.1 8.1,6.2 14.2,6.2 c6.7,0 12.2,-3.5 12.2,-10.5 c0,-14.2 -29.9,-6 -29.9,-25.8 c0,-10.4 9,-16.5 18.7,-16.5 c6.9,0 11.5,2.8 16.9,6.7 l-3.7,5.2 c-4,-2.9 -8.4,-5.3 -13.5,-5.3 c-6.4,0 -11.8,3.2 -11.8,9.6 c0,14.2 29.9,4.9 29.9,25.8 c0,11.8 -9.1,17.4 -20.2,17.4 c-7,0 -13.3,-3.4 -17.7,-8.6 l4.9,-4.2 z" style="fill:#808184;fill-rule:nonzero;" id="svg_4"/><path d="M145.09999978637694,25.099999755859372 l6.4,-1.4 l22.7,41.3 l19.9,-41.3 l6.5,1.4 l-37.8,77.4 l-6.3,-1.4 l14,-29.2 l-25.4,-46.8 z" style="fill:#808184;fill-rule:nonzero;" id="svg_5"/></g><g id="svg_6"><path d="M228.09999978637694,81.69999975585938 l-7,0.9 l0,-71.3 l-21.4,0 l1.6,-7 l47.3,0 l0,7 l-20.4,0 l0,70.4 l-0.1,0 z" style="fill:#3598cb;fill-rule:nonzero;" id="svg_7"/><path d="M264.09999978637694,5.899999755859376 l-5.2,5.9 l-5.2,-5.9 l5.2,-5.9 l5.2,5.9 zM256.19999978637696,83.09999975585937 l0,-58 l6.5,-1.4 l0,58 l-6.5,1.4 z" style="fill:#3598cb;fill-rule:nonzero;" id="svg_8"/><path d="M281.59999978637694,11.199999755859373 l6.5,-3.6 l0,17.5 l15.3,0 l0,6.5 l-15.3,0 l0,35 c0,6.9 2.9,9.5 10.2,9.5 c1.8,0 3.5,0 5.3,-0.2 l0,6.1 c-1.8,0.30000000000000004 -3.8,0.7000000000000001 -5.9,0.7000000000000001 c-10.4,0 -16.1,-6 -16.1,-16.1 l0,-35 l-7.6,0 l1.6,-6.5 l6,0 l0,-13.9 z" style="fill:#3598cb;fill-rule:nonzero;" id="svg_9"/><path d="M312.39999978637695,82.59999975585937 l0,-81.2 l6.6,-1.4 l0,31.9 l0.2,0 c3,-5.1 9.5,-8.2 16.4,-8.2 c10.9,0 21.1,4.3 21.1,20 l0,38 l-6.5,0.9 l0,-40.4 c0,-8.2 -5.3,-12.6 -14.3,-12.6 c-6.2,0 -16.8,4.5 -16.8,15.5 l0,36.7 l-6.7,0.8 z" style="fill:#3598cb;fill-rule:nonzero;" id="svg_10"/><path d="M375.59999978637694,63.299999755859375 c2.3,5.2 9.6,13.2 20.1,13.2 c8.2,0 15.3,-4.3 21.4,-9.4 l0,7.9 c-5,5 -14,8 -21,8 c-17.5,0 -29.3,-13.2 -29.3,-30.4 c0,-17.2 12.6,-29 29.6,-29 c10.4,0 19,6.7 22.3,13.2 l-43.1,26.5 zM408.39999978637695,35.19999975585937 c-2.6,-2.8 -6.9,-5 -12.1,-5 c-13.3,0 -23,9.8 -23,22.6 c0,1.5 0.1,3.2 0.5,4.6 l34.6,-22.2 z" style="fill:#3598cb;fill-rule:nonzero;" id="svg_11"/></g><g id="svg_12"><path d="M431.79999978637693,36.899999755859376 l-1.2,0.2 l0,-11.9 l-3.6,0 l0.30000000000000004,-1.2 l7.9,0 l0,1.2 l-3.4,0 l0,11.7 z" style="fill:#808184;fill-rule:nonzero;" id="svg_13"/><path d="M447.39999978637695,23.699999755859373 l2.6,13.2 l-1.2,0.2 l-1.8,-9.6 l-3.9,9.7 l-4.1,-9.7 l-1.8,9.6 l-1.2,-0.2 l2.6,-13.2 l4.4,10.5 l4.4,-10.5 z" style="fill:#808184;fill-rule:nonzero;" id="svg_14"/></g></g></g></svg>