<svg xmlns="http://www.w3.org/2000/svg" xmlns:xlink="http://www.w3.org/1999/xlink" width="450" height="131" version="1.1" xml:space="preserve" style="fill-rule: evenodd; clip-rule: evenodd; stroke-linejoin: round; stroke-miterlimit: 1.41421;"><rect id="backgroundrect" width="100%" height="100%" x="0" y="0" fill="none" stroke="none"/><g class="currentLayer" style=""><title>Layer 1</title><g id="Elexio" class=""><path d="M403.20001123046876,65.90000004196168 c0,3.6 -0.6000000000000001,7 -1.8,10.1 c-1.2,3.2 -2.9,5.9 -5.1,8.3 c-2.2,2.4 -4.8,4.2 -7.9,5.6 c-3.1,1.4 -6.4,2.1 -10.1,2.1 c-3.7,0 -7,-0.7000000000000001 -10.1,-2.1 c-3.1,-1.4 -5.7,-3.3 -8,-5.6 c-2.2,-2.4 -3.9,-5.1 -5.2,-8.3 c-1.2,-3.2 -1.8,-6.6 -1.8,-10.2 l0,-0.2 c0,-3.6 0.6000000000000001,-7 1.8,-10.1 c1.2,-3.2 2.9,-5.9 5.1,-8.3 c2.2,-2.4 4.8,-4.2 7.9,-5.6 c3.1,-1.4 6.4,-2.1 10.1,-2.1 c3.7,0 7,0.7000000000000001 10.1,2.1 c3.1,1.4 5.7,3.3 8,5.6 c2.2,2.4 3.9,5.1 5.2,8.3 c1.2,3.2 1.8,6.6 1.8,10.2 l0,0.2 zM416.90001123046875,65.70000004196167 l0,-0.2 c0,-5.2 -1,-10.1 -2.9,-14.7 c-1.9,-4.6 -4.6,-8.6 -7.9,-12.1 c-3.4,-3.4 -7.4,-6.2 -12.2,-8.2 c-4.7,-2 -9.9,-3 -15.7,-3 c-5.8,0 -10.9,1 -15.7,3.1 c-4.7,2 -8.8,4.8 -12.3,8.3 c-3.5,3.5 -6.1,7.5 -8,12.1 c-1.9,4.6 -2.9,9.5 -2.9,14.7 l0,0.2 c0,5.2 1,10.1 2.9,14.7 c1.9,4.6 4.6,8.6 7.9,12.1 c3.4,3.4 7.4,6.2 12.2,8.2 c4.7,2 10,3 15.7,3 c5.7,0 10.9,-1 15.7,-3.1 c4.7,-2 8.8,-4.8 12.3,-8.3 c3.5,-3.5 6.1,-7.5 8,-12.1 c2,-4.6 2.9,-9.5 2.9,-14.7 " style="fill:#293334;fill-rule:nonzero;" id="svg_1"/><path d="M33.10001123046875,102.50000004196167 l55.4,0 l0,-11.6 l-42.5,0 l0,-19.7 l37.2,0 l0,-11.7 l-37.2,0 l0,-19 l41.9,0 l0,-11.7 l-54.8,0 l0,73.7 z" style="fill:#293334;fill-rule:nonzero;" id="svg_2"/><path d="M102.30001123046875,102.50000004196167 l51.9,0 l0,-11.6 l-39,0 l0,-62.1 l-12.9,0 l0,73.7 z" style="fill:#293334;fill-rule:nonzero;" id="svg_3"/><path d="M166.10001123046874,102.50000004196167 l55.4,0 l0,-11.6 l-42.4,0 l0,-19.7 l37.1,0 l0,-11.7 l-37.1,0 l0,-19 l41.9,0 l0,-11.7 l-54.9,0 l0,73.7 z" style="fill:#293334;fill-rule:nonzero;" id="svg_4"/><rect x="311.6000061035156" y="28.79999876022339" width="12.899999618530273" height="73.69999694824219" style="fill:#293334;fill-rule:nonzero;" id="svg_5"/><path d="M0.00001123046875051159,4.1961669694501325e-8 l0,131.4 l288.9,0 l-7.3,-10.7 l-270.8,0 l0,-110 l428.4,0 l0,110 l-126.3,0 l-39.2,-56.1 l25.9,-36.2 l-15,0 l-18.5,26.4 l-18.4,-26.4 l-15.4,0 l26,36.7 l-27,37.9 l14.9,0 l19.6,-28.1 l38.4,56.5 l145.8,0 l0,-131.4 l-450,0 z" style="fill:#293334;fill-rule:nonzero;" id="svg_6"/></g></g></svg>