<svg xmlns="http://www.w3.org/2000/svg" width="299" height="34" style=""><rect id="backgroundrect" width="100%" height="100%" x="0" y="0" fill="none" stroke="none"/><g class="currentLayer" style=""><title>Layer 1</title><g fill="#314260" id="svg_1" class=""><path d="M298.027000005126,28.80699768066406 l-1.195,3.047 l-1.196,-3.048 h-0.8360000000000001 v3.7640000000000002 h0.538 v-2.988 h0.06000000000000001 l1.195,2.988 h0.41700000000000004 l1.255,-2.988 v2.988 H298.804000005126 V28.80699768066406 M291.214000005126,29.283997680664065 h1.195 v3.287 h0.538 v-3.287 h1.195 V28.80699768066406 h-2.928 M288.047000005126,29.223997680664063 c-1.8530000000000002,0.6580000000000001 -3.646,0.9560000000000001 -5.26,0.9560000000000001 c-2.63,0 -4.72,-0.8360000000000001 -6.035,-2.33 c-1.315,-1.554 -1.8530000000000002,-3.825 -1.494,-6.574 h17.69 l0.12000000000000001,-0.48000000000000004 c0.23800000000000002,-0.776 0.41700000000000004,-1.493 0.536,-2.15 c0.6580000000000001,-3.8850000000000002 0,-7.29 -1.912,-9.503 c-1.613,-1.912 -4.004,-2.928 -7.052,-2.928 c-8.127,0 -12.25,7.29 -13.326,13.505 c-0.7180000000000001,4.243 0.06000000000000001,8.008 2.21,10.518 c1.8530000000000002,2.21 4.662,3.406 8.068,3.406 c2.5700000000000003,0 5.08,-0.48000000000000004 7.29,-1.435 l0.48000000000000004,-0.18000000000000002 l-0.6580000000000001,-2.987 l-0.6570000000000001,0.18000000000000002 zm-3.8850000000000002,-19.542 c1.733,0 3.407,0.538 4.363,1.6740000000000002 c1.196,1.433 1.6740000000000002,3.7640000000000002 1.256,6.453 H275.854000005126 c0.8380000000000001,-4.064 3.6470000000000002,-8.128 8.308,-8.128 zm-41.892,-6.036 c-2.032,-2.39 -5.14,-3.646 -9.084,-3.646 c-8.904,0 -15.538,6.275 -17.39,16.434 c-0.9570000000000001,5.2 -0.12000000000000001,9.622 2.27,12.49 c2.032,2.45 5.2,3.706 9.084,3.706 c8.725,0 15.538,-6.3950000000000005 17.33,-16.315 c0.9570000000000001,-5.38 0.24000000000000002,-9.742 -2.21,-12.67 zm-1.913,12.788 c-1.135,6.215 -5.02,12.85 -12.43,12.85 c-2.6900000000000004,0 -4.78,-0.8380000000000001 -6.215,-2.5700000000000003 c-2.5700000000000003,-3.108 -2.15,-7.83 -1.733,-10.4 c1.494,-8.127 6.155,-12.967 12.49,-12.967 c2.6900000000000004,0 4.78,0.8370000000000001 6.215,2.5700000000000003 c1.912,2.27 2.51,5.917 1.673,10.518 zm27.43,-7.71 c-1.314,-1.7320000000000002 -3.824,-2.5700000000000003 -7.41,-2.5700000000000003 c-3.645,0 -7.59,1.256 -11.354,2.63 c-0.06000000000000001,0.6580000000000001 -0.12000000000000001,2.45 -0.30000000000000004,3.407 l-3.825,20.38 h3.944 l3.7640000000000002,-19.96 c0.06000000000000001,-0.48000000000000004 0.12000000000000001,-1.316 0.12000000000000001,-1.316 v-0.24000000000000002 l0.24000000000000002,-0.06000000000000001 c2.33,-0.9560000000000001 4.9,-1.554 6.93,-1.554 c1.9729999999999999,0 3.467,0.5980000000000001 4.364,1.733 c0.8960000000000001,1.135 0.777,2.8680000000000003 0.41800000000000004,4.9 l-3.107,16.554 h3.943 L268.804000005126,15.000997680664064 c0.47800000000000004,-2.6900000000000004 0.12000000000000001,-4.84 -1.016,-6.275 zM37.170000005126,29.223997680664063 c-1.852,0.6580000000000001 -3.645,0.9560000000000001 -5.26,0.9560000000000001 c-2.628,0 -4.72,-0.8360000000000001 -6.035,-2.33 c-1.3130000000000002,-1.554 -1.85,-3.825 -1.493,-6.574 h17.69 l0.12000000000000001,-0.48000000000000004 c0.23800000000000002,-0.776 0.41700000000000004,-1.493 0.537,-2.15 c0.6570000000000001,-3.8850000000000002 0,-7.29 -1.912,-9.503 c-1.614,-1.912 -4.004,-2.928 -7.052,-2.928 c-8.128,0 -12.25,7.29 -13.327,13.505 c-0.7170000000000001,4.243 0.06000000000000001,8.008 2.21,10.518 c1.854,2.21 4.663,3.406 8.07,3.406 c2.5700000000000003,0 5.08,-0.48000000000000004 7.29,-1.435 l0.47800000000000004,-0.18000000000000002 l-0.6560000000000001,-2.987 l-0.6580000000000001,0.18000000000000002 zm-3.8840000000000003,-19.542 c1.733,0 3.406,0.538 4.362,1.6740000000000002 c1.195,1.433 1.6740000000000002,3.7640000000000002 1.255,6.453 H24.978000005126 c0.8370000000000001,-4.064 3.645,-8.128 8.307,-8.128 zM5.914000005126,0.060997680664062415 L5.125999485988686e-9,32.63099768066406 H4.004000005126 l2.808,-15.3 h11.235 l0.5970000000000001,-3.406 H7.409000005126 L9.322000005126,3.52699768066406 h13.446 l0.5970000000000001,-3.466 M43.804000005126,32.570997680664064 l4.84,-26.474 h3.765 l-4.303,23.187 h11.056 l-0.5970000000000001,3.287 H43.804000005126 M62.031000005125996,32.570997680664064 l4.84,-26.474 h3.765 L66.394000005126,29.283997680664065 h11.055 l-0.5980000000000001,3.287 h-14.82 M79.720000005126,20.02099768066406 c1.494,-8.128 6.932,-13.745000000000001 14.582,-13.745000000000001 s11.055,5.616 9.56,13.744 C102.370000005126,28.088997680664065 96.87400000512599,33.70699768066406 89.344000005126,33.70699768066406 c-7.53,-0.06000000000000001 -11.056,-5.678 -9.622,-13.686 zm20.2,0 c1.075,-5.916 -0.6580000000000001,-10.458 -6.216,-10.458 c-5.498,0 -8.964,4.482 -10.04,10.458 c-0.9560000000000001,5.08 0.30000000000000004,10.34 6.275,10.34 c5.976,0 9.084,-5.26 9.98,-10.34 zm43.087,-13.865 l-9.92,19.302 c-0.42000000000000004,0.7170000000000001 -0.8970000000000001,1.673 -0.8970000000000001,1.673 l-0.06000000000000001,-0.41800000000000004 l-0.12000000000000001,-0.9560000000000001 l-3.465,-19.6 h-4.183 l-9.92,19.302 c-0.41800000000000004,0.7170000000000001 -0.8960000000000001,1.673 -0.8960000000000001,1.673 l-0.06000000000000001,-0.41800000000000004 l-0.12000000000000001,-0.9560000000000001 l-3.465,-19.66 h-4.064 l4.245,23.127 c0.24000000000000002,1.375 1.254,3.347 3.824,3.347 l11.593,-20.917 l3.227,17.57 c0.24000000000000002,1.375 1.255,3.347 3.825,3.347 l14.64,-26.474 h-4.182 v0.06000000000000001 zM186.154000005126,32.570997680664064 l4.84,-26.355 h3.766 l-4.84,26.354 M144.322000005126,29.16399768066406 c1.972,0.7180000000000001 3.8840000000000003,1.1360000000000001 5.976,1.1360000000000001 c2.5700000000000003,0 5.617,-1.076 6.155,-4.064 c1.075,-5.798 -11.535,-4.543 -9.98,-13.03 c0.8950000000000001,-4.96 5.676,-7.05 10.1,-7.05 c2.21,0 4.242,0.47700000000000004 6.214,1.254 l-1.6740000000000002,3.048 c-1.4340000000000002,-0.538 -3.286,-1.016 -5.08,-1.016 c-2.45,0 -4.96,0.8970000000000001 -5.497,3.646 c-0.8970000000000001,5.02 11.653,4.183 10.1,12.79 c-0.9570000000000001,5.257 -6.156,7.648 -10.877,7.648 c-2.39,0 -4.78,-0.41800000000000004 -6.873,-1.255 l1.435,-3.108 zM178.206000005126,32.570997680664064 l2.21,-12.132 h-12.847 l-2.212,12.132 h-3.705 l4.78,-26.415 h3.706 l-1.972,10.936 h12.85 l1.97,-10.937 h3.706 l-4.78,26.414 M194.162000005126,32.570997680664064 l4.662,-25.757 c2.21,-0.47800000000000004 4.422,-0.6580000000000001 6.573,-0.6580000000000001 c5.08,0 8.905,2.39 7.890000000000001,7.888 c-0.9580000000000001,5.378 -5.68,8.187 -10.878,8.187 c-0.9560000000000001,0 -1.7930000000000001,-0.06000000000000001 -2.63,-0.24000000000000002 l-1.97,10.58 h-3.6470000000000002 zm6.215,-13.805 c0.7170000000000001,0.11800000000000002 1.6740000000000002,0.23800000000000002 2.5700000000000003,0.23800000000000002 c3.287,0 5.916,-1.614 6.514,-5.08 c0.5980000000000001,-3.406 -1.375,-4.542 -4.66,-4.542 c-0.8980000000000001,0 -1.854,0.12000000000000001 -2.75,0.24000000000000002 l-1.6740000000000002,9.143 z" id="svg_2"/></g></g></svg>