<svg xmlns="http://www.w3.org/2000/svg" xmlns:xlink="http://www.w3.org/1999/xlink" version="1.1" style="" xml:space="preserve" width="301" height="49"><rect id="backgroundrect" width="100%" height="100%" x="0" y="0" fill="none" stroke="none"/>
<style type="text/css">
	.st0{fill:#41B649;}
	.st1{fill:#C0D84F;}
	.st2{fill:#6C5135;}
</style>





















<g class="currentLayer" style=""><title>Layer 1</title><g id="svg_1" class="">
	<path d="M59.8138438642025,39.70405158996582 c-3.1,0 -5.5,-1.1 -7.9,-3.1 l0.9,-1.1 c2.1,2 4.1,2.9 7,2.9 c2.9,0 5,-1.7000000000000002 5,-3.9 v-0.1 c0,-2 -1.1,-3.2 -5.5,-4.2 c-4.7,-0.9 -6.5,-2.5 -6.5,-5.5 v-0.1 c0,-2.9 2.6,-5.1 6.3,-5.1 c2.8,0 4.7,0.8 6.7,2.4 l-0.9,1.1 c-1.9,-1.6 -3.7,-2.2 -5.8,-2.2 c-2.8,0 -4.8,1.7000000000000002 -4.8,3.7 v0.1 c0,2 1.1,3.3 5.7,4.2 c4.5,0.9 6.4,2.5 6.4,5.4 v0.1 C66.2138438642025,37.60405158996582 63.6138438642025,39.70405158996582 59.8138438642025,39.70405158996582 z" id="svg_2"/>
	<path d="M70.1138438642025,21.60405158996582 v-1.9 h1.7000000000000002 v1.9 H70.1138438642025 zM70.2138438642025,39.50405158996582 V25.304051589965823 h1.4 v14.2 H70.2138438642025 z" id="svg_3"/>
	<path d="M96.4138438642025,39.50405158996582 v-8.5 c0,-3 -1.6,-4.8 -4.2,-4.8 c-2.4,0 -4.5,1.9 -4.5,5 v8.3 h-1.4 v-8.5 c0,-3 -1.6,-4.8 -4.2,-4.8 c-2.6,0 -4.6,2.2 -4.6,5.1 v8.2 h-1.4 V25.304051589965823 h1.4 v2.5 c0.9,-1.5 2.2,-2.8 4.8,-2.8 c2.4,0 4,1.4 4.8,3 c0.9,-1.6 2.4,-3 5.1,-3 c3.4,0 5.5,2.4 5.5,6 v8.6 H96.4138438642025 z" id="svg_4"/>
	<path d="M109.3138438642025,39.80405158996582 c-2.8,0 -4.7,-1.6 -5.8,-3.4 v7.5 h-1.4 V25.304051589965823 h1.4 v3.2 c1.3,-1.9 3,-3.5 5.8,-3.5 c3.4,0 6.9,2.8 6.9,7.4 v0.1 C116.2138438642025,37.00405158996582 112.6138438642025,39.80405158996582 109.3138438642025,39.80405158996582 zM114.7138438642025,32.40405158996582 c0,-3.7 -2.6,-6.1 -5.6,-6.1 s-5.8,2.4 -5.8,6.1 v0.1 c0,3.6 2.8,6.1 5.8,6.1 C112.2138438642025,38.50405158996582 114.7138438642025,36.20405158996582 114.7138438642025,32.40405158996582 L114.7138438642025,32.40405158996582 z" id="svg_5"/>
	<path d="M119.9138438642025,39.50405158996582 V19.10405158996582 h1.4 v20.3 L119.9138438642025,39.50405158996582 L119.9138438642025,39.50405158996582 z" id="svg_6"/>
	<path d="M132.0138438642025,38.60405158996582 c2.2,0 3.7,-1 4.9,-2.2 l0.9,0.9 c-1.5,1.6 -3.2,2.6 -5.9,2.6 c-3.7,0 -6.9,-3 -6.9,-7.4 v-0.1 c0,-4.1 2.9,-7.4 6.7,-7.4 c4,0 6.5,3.2 6.5,7.4 v0.1 c0,0.2 0,0.30000000000000004 0,0.5 h-11.8 C126.7138438642025,36.40405158996582 129.2138438642025,38.60405158996582 132.0138438642025,38.60405158996582 zM136.8138438642025,31.70405158996582 c-0.2,-2.8 -1.9,-5.5 -5.1,-5.5 c-2.8,0 -5,2.4 -5.2,5.5 H136.8138438642025 z" id="svg_7"/>
	<path d="M150.7138438642025,39.80405158996582 c-5.6,0 -9.7,-4.4 -9.7,-10 v-0.1 c0,-5.5 4.1,-10 9.7,-10 c3.5,0 5.6,1.3 7.6,3.1 l-1.1,1.1 c-1.7000000000000002,-1.7000000000000002 -3.6,-2.8 -6.5,-2.8 c-4.7,0 -8.2,3.8 -8.2,8.7 v0.1 c0,5 3.6,8.8 8.3,8.8 c2.8,0 4.8,-1.1 6.7,-3 l1,0.9 C156.3138438642025,38.40405158996582 154.1138438642025,39.80405158996582 150.7138438642025,39.80405158996582 z" id="svg_8"/>
	<path d="M172.2138438642025,39.50405158996582 v-8.5 c0,-2.9 -1.7000000000000002,-4.8 -4.5,-4.8 c-2.8,0 -5,2.1 -5,5.1 v8.2 h-1.4 V19.10405158996582 h1.4 v8.8 c0.9,-1.7000000000000002 2.5,-3 5.1,-3 c3.6,0 5.7,2.4 5.7,5.8 v8.7 L172.2138438642025,39.50405158996582 L172.2138438642025,39.50405158996582 z" id="svg_9"/>
	<path d="M188.3138438642025,39.50405158996582 v-2.6 c-0.9,1.7000000000000002 -2.5,3 -5.1,3 c-3.6,0 -5.7,-2.4 -5.7,-5.8 v-8.7 h1.4 v8.5 c0,2.9 1.7000000000000002,4.8 4.5,4.8 c2.8,0 5,-2.1 5,-5.1 v-8.2 h1.4 v14.2 H188.3138438642025 z" id="svg_10"/>
	<path d="M201.6138438642025,26.60405158996582 c-3.3,0 -6.1,2.4 -6.1,7.1 v5.8 h-1.4 V25.304051589965823 h1.4 v4 c1.1,-2.5 3.5,-4.4 6.3,-4.2 v1.5 C201.8138438642025,26.60405158996582 201.6138438642025,26.60405158996582 201.6138438642025,26.60405158996582 z" id="svg_11"/>
	<path d="M210.2138438642025,39.80405158996582 c-4.1,0 -7.3,-3.4 -7.3,-7.4 v-0.1 c0,-4 3.2,-7.4 7.3,-7.4 c2.6,0 4.4,1.3 5.7,2.6 l-1,1 c-1.3,-1.3 -2.6,-2.3 -4.8,-2.3 c-3.2,0 -5.8,2.7 -5.8,6.1 v0.1 c0,3.4 2.6,6.1 5.8,6.1 c2,0 3.6,-1.1 4.8,-2.4 l0.9,0.9 C214.5138438642025,38.60405158996582 212.7138438642025,39.80405158996582 210.2138438642025,39.80405158996582 z" id="svg_12"/>
	<path d="M229.9138438642025,39.50405158996582 v-8.5 c0,-2.9 -1.7000000000000002,-4.8 -4.5,-4.8 c-2.8,0 -5,2.1 -5,5.1 v8.2 H219.0138438642025 V19.10405158996582 h1.4 v8.8 c0.9,-1.7000000000000002 2.5,-3 5.1,-3 c3.6,0 5.7,2.4 5.7,5.8 v8.7 L229.9138438642025,39.50405158996582 L229.9138438642025,39.50405158996582 z" id="svg_13"/>
	<path class="st0" d="M252.2138438642025,39.80405158996582 c-5.6,0 -9.7,-4.4 -9.7,-10 v-0.1 c0,-5.5 4.1,-10 9.7,-10 c3.5,0 5.6,1.3 7.6,3.1 l-1.1,1.1 c-1.7000000000000002,-1.7000000000000002 -3.6,-2.8 -6.5,-2.8 c-4.7,0 -8.2,3.8 -8.2,8.7 v0.1 c0,5 3.6,8.8 8.3,8.8 c2.8,0 4.8,-1.1 6.7,-3 l1,0.9 C257.9138438642025,38.40405158996582 255.7138438642025,39.80405158996582 252.2138438642025,39.80405158996582 z" id="svg_14"/>
	<path class="st0" d="M277.3138438642025,39.50405158996582 l-6.2,-8.1 h-6.3 v8.1 h-1.5 V20.00405158996582 h8.2 c4.2,0 6.9,2.3 6.9,5.6 v0.1 c0,3.2 -2.4,5.1 -5.7,5.6 l6.4,8.3 H277.3138438642025 zM276.9138438642025,25.60405158996582 c0,-2.6 -2,-4.2 -5.6,-4.2 h-6.7 v8.8 h6.5 C274.6138438642025,30.10405158996582 276.9138438642025,28.404051589965817 276.9138438642025,25.60405158996582 L276.9138438642025,25.60405158996582 z" id="svg_15"/>
	<path class="st0" d="M299.6138438642025,39.50405158996582 V22.60405158996582 l-7.7,11.2 h-0.1 L284.0138438642025,22.60405158996582 v16.9 h-1.4 V20.00405158996582 h1.4 l7.8,11.5 l7.8,-11.5 h1.4 v19.5 H299.6138438642025 z" id="svg_16"/>
</g><path class="st0" d="M20.3138438642025,0.6040515899658203 c-1.1,1.3 -4,5.5 0.1,11.5 c0.2,0.30000000000000004 0.5,0.30000000000000004 0.7000000000000001,0 c2.8,-4.2 2.8,-8 0,-11.5 C20.913843864202498,0.404051589965821 20.5138438642025,0.3040515899658196 20.3138438642025,0.6040515899658203 z" id="svg_17"/><path class="st0" d="M8.713843864202499,3.6040515899658203 c-0.30000000000000004,1.7000000000000002 -0.4,6.8 6.3,9.7 c0.30000000000000004,0.1 0.5,-0.1 0.5,-0.30000000000000004 c0.1,-5 -1.9,-8.3 -6.2,-9.7 C9.113843864202499,3.1040515899658203 8.8138438642025,3.3040515899658196 8.713843864202499,3.6040515899658203 z" id="svg_18"/><path class="st0" d="M1.9138438642024993,12.60405158996582 c0.8,1.5 3.6,5.8 10.8,4.1 c0.30000000000000004,-0.1 0.4,-0.30000000000000004 0.30000000000000004,-0.6000000000000001 c-2.8,-4.1 -6.4,-5.6 -10.7,-4.2 C1.9138438642024993,12.004051589965819 1.8138438642024994,12.404051589965817 1.9138438642024993,12.60405158996582 z" id="svg_19"/><path class="st0" d="M2.813843864202499,23.404051589965817 C4.313843864202499,24.304051589965823 9.0138438642025,26.304051589965823 14.113843864202499,21.10405158996582 c0.2,-0.2 0.1,-0.5 -0.1,-0.7000000000000001 c-4.6,-2 -8.4,-1.3 -11.3,2.2 C2.5138438642024994,23.00405158996582 2.5138438642024994,23.304051589965823 2.813843864202499,23.404051589965817 z" id="svg_20"/><path class="st0" d="M9.0138438642025,33.30405158996582 c1.7000000000000002,-0.30000000000000004 6.5,-2 6.9,-9.3 c0,-0.30000000000000004 -0.2,-0.5 -0.5,-0.4 c-4.8,1.6 -7.1,4.7 -6.9,9.2 C8.4138438642025,33.10405158996582 8.713843864202499,33.30405158996582 9.0138438642025,33.30405158996582 z" id="svg_21"/><path class="st0" d="M29.7138438642025,34.50405158996582 c0.5,-1.7000000000000002 1.2,-6.7 -5.2,-10.3 c-0.30000000000000004,-0.1 -0.5,0 -0.6000000000000001,0.30000000000000004 c-0.7000000000000001,5 0.9,8.4 5,10.4 C29.3138438642025,34.90405158996582 29.7138438642025,34.80405158996582 29.7138438642025,34.50405158996582 z" id="svg_22"/><path class="st1" d="M24.913843864202498,36.30405158996582 c0.4,-1.1 0.9,-3.5 -2,-5.6 c-0.30000000000000004,-0.2 -0.6000000000000001,-0.1 -0.7000000000000001,0.2 c-0.7000000000000001,2.5 -0.1,4.4 1.9,5.6 C24.413843864202498,36.80405158996582 24.7138438642025,36.60405158996582 24.913843864202498,36.30405158996582 z" id="svg_23"/><path class="st1" d="M34.4138438642025,30.60405158996582 c-0.1,-1.1 -0.7000000000000001,-3.6 -4.2,-4.2 c-0.30000000000000004,-0.1 -0.5,0.2 -0.5,0.5 c0.5,2.6 1.8,4 4.1,4.2 C34.1138438642025,31.20405158996582 34.4138438642025,31.00405158996582 34.4138438642025,30.60405158996582 z" id="svg_24"/><path class="st1" d="M38.4138438642025,19.404051589965817 c-0.8,-0.8 -2.9,-2.2 -6,-0.30000000000000004 c-0.30000000000000004,0.2 -0.30000000000000004,0.5 -0.1,0.7000000000000001 c2,1.6 4,1.8 5.9,0.4 C38.6138438642025,20.10405158996582 38.6138438642025,19.70405158996582 38.4138438642025,19.404051589965817 z" id="svg_25"/><path class="st1" d="M35.8138438642025,7.704051589965822 c-1.1,-0.1 -3.6,-0.1 -4.9,3.3 c-0.1,0.30000000000000004 0.1,0.6000000000000001 0.4,0.6000000000000001 c2.6,0.1 4.3,-1 5,-3.2 C36.4138438642025,8.10405158996582 36.2138438642025,7.704051589965822 35.8138438642025,7.704051589965822 z" id="svg_26"/><path class="st1" d="M27.3138438642025,1.504051589965819 c-1.1,0.4 -3.3,1.6 -3,5.2 c0,0.30000000000000004 0.30000000000000004,0.5 0.6000000000000001,0.30000000000000004 c2.4,-1.1 3.4,-2.8 3,-5.1 C28.0138438642025,1.7040515899658217 27.6138438642025,1.504051589965819 27.3138438642025,1.504051589965819 z" id="svg_27"/><path class="st1" d="M14.0138438642025,0.3040515899658196 c-0.5,1 -1.2,3.4 1.6,5.7 c0.30000000000000004,0.2 0.5,0.1 0.7000000000000001,-0.2 c0.9,-2.4 0.4,-4.4 -1.5,-5.7 C14.5138438642025,-0.09594841003417898 14.113843864202499,0.004051589965818891 14.0138438642025,0.3040515899658196 z" id="svg_28"/><path class="st1" d="M4.2138438642025,6.504051589965819 c0.1,1.1 0.8,3.6 4.3,4 c0.30000000000000004,0.1 0.5,-0.2 0.5,-0.5 c-0.5,-2.6 -1.9,-4 -4.2,-4.1 C4.4138438642025,5.904051589965821 4.113843864202499,6.204051589965822 4.2138438642025,6.504051589965819 z" id="svg_29"/><path class="st1" d="M0.2138438642024994,18.60405158996582 c0.9,0.7000000000000001 3,2 6,0 c0.30000000000000004,-0.2 0.30000000000000004,-0.5 0,-0.7000000000000001 C4.013843864202499,16.404051589965817 2.0138438642024994,16.304051589965823 0.31384386420249943,17.904051589965817 C-0.08615613579750062,18.00405158996582 -0.08615613579750062,18.404051589965817 0.2138438642024994,18.60405158996582 z" id="svg_30"/><path class="st1" d="M4.4138438642025,29.404051589965817 c1.1,0.1 3.6,-0.1 4.8,-3.4 c0.1,-0.30000000000000004 -0.1,-0.6000000000000001 -0.4,-0.6000000000000001 c-2.6,0 -4.2,1.1 -4.9,3.3 C3.813843864202499,29.00405158996582 4.013843864202499,29.304051589965823 4.4138438642025,29.404051589965817 z" id="svg_31"/><path class="st1" d="M13.613843864202499,36.20405158996582 c1.1,-0.5 3.1,-1.9 2.5,-5.4 c-0.1,-0.30000000000000004 -0.30000000000000004,-0.5 -0.6000000000000001,-0.30000000000000004 c-2.2,1.3 -3.2,3 -2.6,5.3 C13.0138438642025,36.10405158996582 13.3138438642025,36.30405158996582 13.613843864202499,36.20405158996582 z" id="svg_32"/><path class="st0" d="M36.3138438642025,25.60405158996582 c-0.5,-1.7000000000000002 -2.6,-6.3 -9.9,-5.9 c-0.30000000000000004,0 -0.5,0.30000000000000004 -0.30000000000000004,0.6000000000000001 c2.1,4.6 5.4,6.5 9.9,6 C36.2138438642025,26.304051589965823 36.4138438642025,25.904051589965817 36.3138438642025,25.60405158996582 z" id="svg_33"/><path class="st0" d="M37.0138438642025,13.504051589965819 c-1.5,-0.7000000000000001 -6.4,-2.4 -11.1,3.2 c-0.2,0.30000000000000004 -0.1,0.5 0.2,0.7000000000000001 c4.8,1.6 8.5,0.6000000000000001 11.1,-3.1 C37.3138438642025,14.004051589965819 37.3138438642025,13.60405158996582 37.0138438642025,13.504051589965819 z" id="svg_34"/><path class="st0" d="M31.7138438642025,4.404051589965821 c-1.7000000000000002,0.30000000000000004 -6.6,1.7000000000000002 -7.3,8.9 c0,0.30000000000000004 0.2,0.5 0.5,0.4 c4.8,-1.4 7.3,-4.3 7.4,-8.8 C32.3138438642025,4.60405158996582 32.0138438642025,4.30405158996582 31.7138438642025,4.404051589965821 z" id="svg_35"/><path class="st2" d="M17.0138438642025,10.10405158996582 c0.4,1.1 1.5,5.6 1.4,10.6 c-1.8,-2.2 -3.4,-3.4 -4.7,-3.8 c-0.1,0 -0.30000000000000004,-0.1 -0.1,0.1 c2,1.3 4,3.9 4.2,7.6 c0.30000000000000004,3.3 -2.4,18.4 -3.7,22.8 c-0.30000000000000004,0.9 0.30000000000000004,1 0.6000000000000001,1.1 c2,0.7000000000000001 6.2,0.7000000000000001 7.9,0 c0.4,-0.2 0.7000000000000001,-0.30000000000000004 0.5,-0.9 c-0.5,-1.6 -1.6,-4.9 -2,-7.5 c-0.5,-3.6 -1.1,-8.9 0.7000000000000001,-12.4 c1.7000000000000002,-3.4 2.2,-6.9 1.7000000000000002,-10.3 c0,-0.1 -0.1,-0.1 -0.1,0 c0,2.2 -0.5,5 -2.4,7.5 c-0.8,-7.5 -2.4,-12 -3.6,-14.8 C16.5138438642025,7.204051589965822 16.2138438642025,7.30405158996582 17.0138438642025,10.10405158996582 z" id="svg_36"/></g></svg>