<svg xmlns="http://www.w3.org/2000/svg" xmlns:xlink="http://www.w3.org/1999/xlink" version="1.1" style="enable-background:new 0 0 301 90;" xml:space="preserve" width="295" height="65"><rect id="backgroundrect" width="100%" height="100%" x="0" y="0" fill="none" stroke="none" class="" style=""/>
<style type="text/css">
	.st0{fill-rule:evenodd;clip-rule:evenodd;}
	.st1{fill-rule:evenodd;clip-rule:evenodd;fill:#A8B16C;}
	.st2{fill:#A8B16C;}
	.st3{fill:#FFFFFF;}
</style>


























<g class="currentLayer" style=""><title>Layer 1</title><g id="svg_98" class="">
	<g id="svg_99">
		<path d="M3,36.24065452414723 H0 v2.8067932605743406 C0,43.175084932625 2.9000000000000057,50.35717356997702 15.099999999999994,50.35717356997702 c8.3,0 15.3,-4.4578481197357185 15.3,-12.21780595779419 c0,-6.356561207771302 -4,-9.24590721130371 -10.8,-11.144620299339294 L11.700000000000003,24.76582325297568 c-4.5,-1.1557384014129637 -7.7,-3.54976794719696 -7.7,-8.337827038764953 c0,-6.851877665519715 5.4,-9.080801725387573 11.3,-9.080801725387573 c7.6,0 10.8,3.879978919029236 10.8,9.823776412010194 h3.1 c0,-7.264641380310059 -4.3,-11.887594985961915 -14.2,-11.887594985961915 c-8.3,0 -14.2,4.29274263381958 -14.2,11.30972578525543 c0,5.943797492980957 3.8,8.750590753555297 10.8,10.73185658454895 l5.9,1.8161603450775146 c5.9,1.6510548591613772 9.5,3.714873433113098 9.5,9.328459954261781 c0,5.531033778190613 -4.9,9.98888189792633 -12.2,9.98888189792633 c-7.6,0 -12.1,-4.29274263381958 -12.1,-9.823776412010194 v-2.3940295457839964 H3 z" id="svg_100"/>
		<polygon points="37,49.77931880950928 39.899993896484375,49.77931880950928 39.899993896484375,17.83139705657959 37,17.83139705657959 37,49.77931880950928 " id="svg_101"/>
		<path d="M44.400000000000006,19.730105932533462 h5.2 v24.765822887420654 c0,3.3846624612808225 1.6,5.365928292274475 5.8,5.365928292274475 c1.1,0 2.5,-0.16510548591613777 4,-0.4127637147903443 v-2.063818573951721 c-1.3,0.3302109718322756 -2.3,0.3302109718322756 -3.4,0.3302109718322756 c-1.6,0 -3.4,-0.4127637147903443 -3.4,-3.54976794719696 V19.730105932533462 H59 v-2.063818573951721 h-6.5 V8.337827404319995 h-2.9 v9.493565440177917 h-5.2 L44.400000000000006,19.730105932533462 L44.400000000000006,19.730105932533462 z" id="svg_102"/>
		<path d="M64.9,31.452595432579272 c0,-4.127637147903442 1.1,-12.300358700752259 9.7,-12.300358700752259 c7.9,0 9.2,6.52166669368744 9.2,12.300358700752259 H64.9 L64.9,31.452595432579272 zM86.69999999999999,33.59896674948908 c0,-10.236540126800538 -2.9,-16.51054859161377 -12.1,-16.51054859161377 c-8.8,0 -13,6.108902978897095 -13,15.767573904991151 c0,10.814409327507018 2.5,17.501181507110594 12.4,17.501181507110594 c8.8,0 12.1,-6.274008464813232 12.1,-11.144620299339294 h-2.9 c0,2.3940295457839964 -1.3,9.080801725387573 -9.5,9.080801725387573 c-9,0 -9.2,-9.658670926094054 -9.2,-14.859493732452393 h22.1 V33.59896674948908 z" id="svg_103"/>
	</g>
	<g id="svg_104">
		<g id="svg_105">
			<path d="M152.2,49.779304369270506 h2.9 V29.38877685862755 c0,-5.200822806358337 3.2,-10.236540126800538 9.9,-10.236540126800538 h1.6 v-2.063818573951721 H165 c-5,0 -8.3,2.6416877746582035 -9.7,6.274008464813232 h-0.2 v-5.531033778190613 h-2.9 V49.779304369270506 L152.2,49.779304369270506 z" id="svg_106"/>
			<path d="M172.10000000000002,33.59896674948908 c0,-10.814409327507018 3.6,-14.446730017662048 9.7,-14.446730017662048 S191,23.94029582339499 191,33.10365029174065 c0,8.58548526763916 -2.5,14.529282760620118 -9.5,14.529282760620118 C174.3,47.632933052360784 172.10000000000002,41.68913555937979 172.10000000000002,33.59896674948908 L172.10000000000002,33.59896674948908 zM193.89999999999998,17.831392844497913 H191 v5.365928292274475 h-0.2 c-1.4,-3.714873433113098 -4.5,-6.108902978897095 -9.5,-6.108902978897095 c-10.3,0 -12.2,7.8425105810165405 -12.2,16.51054859161377 c0,8.750590753555297 2.5,16.180337619781497 11.7,16.180337619781497 c6.8,0 9,-3.714873433113098 10.1,-6.52166669368744 h0.2 v5.778692007064819 c0,6.686772179603576 -2.7,9.823776412010194 -9.4,9.823776412010194 c-5.4,0 -7.9,-2.5591350317001345 -7.9,-5.778692007064819 h-2.9 c0,1.6510548591613772 0.7000000000000004,7.8425105810165405 10.4,7.8425105810165405 c9.5,0 12.4,-5.200822806358337 12.4,-13.04333338737488 V17.831392844497913 H193.89999999999998 z" id="svg_107"/>
			<path d="M222.3,25.426245196640195 c0,-4.622953605651855 -2.2,-8.502932524681093 -10.6,-8.502932524681093 c-9,0 -11,5.531033778190613 -11,9.823776412010194 h2.9 c0,-4.4578481197357185 2,-7.759957838058472 8.5,-7.759957838058472 c4.1,0 7.6,1.1557384014129637 7.6,7.016983151435852 c0,2.6416877746582035 -0.4,4.045084404945374 -3.8,4.788059091567993 l-8.3,1.8987130880355836 c-5.4,1.1557384014129637 -7.9,4.045084404945374 -7.9,8.750590753555297 c0,4.870611834526063 2.9,8.915696239471437 9.7,8.915696239471437 c5.2,0 9,-2.5591350317001345 10.1,-5.943797492980957 h0.2 v2.063818573951721 c0,2.5591350317001345 2.2,3.54976794719696 3.4,3.54976794719696 c1.3,0 2.3,-0.16510548591613777 2.9,-0.5778692007064823 v-1.8161603450775146 c-0.5,0.3302109718322756 -1.1,0.3302109718322756 -1.8,0.3302109718322756 c-0.9,0 -1.6,-0.5778692007064823 -1.6,-2.063818573951721 V25.426245196640195 H222.3 zM219.5,37.72660389739252 c0,6.356561207771302 -3.2,10.73185658454895 -9.7,10.73185658454895 c-4.9,0 -7,-2.6416877746582035 -7,-6.851877665519715 c0,-3.714873433113098 1.6,-5.943797492980957 6.1,-7.016983151435852 l5.8,-1.3208438873291017 c2.9,-0.7429746866226198 4,-0.9080801725387575 4.9,-2.063818573951721 h0.2 v6.52166669368744 H219.5 z" id="svg_108"/>
			<path d="M230.3,49.779304369270506 h2.9 V29.22367137271138 c0,-5.531033778190613 3.4,-10.071434640884398 9.2,-10.071434640884398 c4.9,0 7.7,1.8987130880355836 7.7,7.5948523521423335 v23.032215285301206 h2.9 V25.673903425514453 c0,-6.108902978897095 -4.3,-8.58548526763916 -9.7,-8.58548526763916 c-5.2,0 -8.5,2.8067932605743406 -9.9,5.531033778190613 h-0.2 v-4.788059091567993 h-2.9 V49.779304369270506 L230.3,49.779304369270506 z" id="svg_109"/>
			<polygon points="260.70001220703125,49.77931880950928 263.5,49.77931880950928 263.5,31.039835929870605 260.70001220703125,31.039835929870605 260.70001220703125,49.77931880950928 " id="svg_110"/>
			<path d="M291.8,39.21255327063773 c0,2.3940295457839964 -1.3,9.080801725387573 -8.5,9.080801725387573 s-9.9,-4.788059091567993 -9.9,-14.694388246536256 c0,-9.24590721130371 2.7,-14.529282760620118 9.9,-14.529282760620118 c6.7,0 8.3,5.778692007064819 8.3,7.8425105810165405 h3.1 c0,-2.3940295457839964 -1.8,-9.98888189792633 -11.2,-9.98888189792633 c-9.2,0 -13,5.943797492980957 -13,16.51054859161377 c0,9.658670926094054 2.5,16.923312306404114 12.4,16.923312306404114 C293,50.35717356997702 295,42.18445201712822 295,39.21255327063773 H291.8 L291.8,39.21255327063773 z" id="svg_111"/>
			<path class="st2" d="M261.9,28.39814394313069 c-1.8,0 -3.1,-1.1557384014129637 -3.1,-2.5591350317001345 c0,-1.4859493732452393 1.4,-2.5591350317001345 3.1,-2.5591350317001345 c1.8,0 3.1,1.1557384014129637 3.1,2.5591350317001345 C265.2,27.15985279875966 263.7,28.39814394313069 261.9,28.39814394313069 L261.9,28.39814394313069 z" id="svg_112"/>
			<path class="st2" d="M261.9,22.124135478317484 c-0.7000000000000004,0 -1.4,-0.5778692007064823 -1.4,-1.1557384014129637 s0.7000000000000004,-1.1557384014129637 1.4,-1.1557384014129637 s1.4,0.5778692007064823 1.4,1.1557384014129637 C263.4,21.54626627761101 262.8,22.124135478317484 261.9,22.124135478317484 L261.9,22.124135478317484 z" id="svg_113"/>
			<path class="st2" d="M261.9,18.82202575999473 c-0.5,0 -0.9,-0.3302109718322756 -0.9,-0.7429746866226198 c0,-0.4127637147903443 0.4,-0.7429746866226198 0.9,-0.7429746866226198 c0.5,0 0.9,0.3302109718322756 0.9,0.7429746866226198 C262.8,18.574367531120515 262.5,18.82202575999473 261.9,18.82202575999473 L261.9,18.82202575999473 z" id="svg_114"/>
		</g>
	</g>
	<g id="svg_115">
		<path class="st2" d="M119.80000000000001,3.655550244729966e-7 c-2.3,0 -4.3,1.6510548591613772 -4.3,3.54976794719696 s2,3.54976794719696 4.3,3.54976794719696 c2.5,0 4.3,-1.4859493732452393 4.3,-3.54976794719696 C124.1,1.6510552247164014 122.30000000000001,3.655550244729966e-7 119.80000000000001,3.655550244729966e-7 L119.80000000000001,3.655550244729966e-7 z" id="svg_116"/>
		<path class="st2" d="M119.80000000000001,8.585485633194168 c-1.1,0 -2,0.7429746866226198 -2,1.6510548591613772 s0.9,1.6510548591613772 2,1.6510548591613772 s2,-0.7429746866226198 2,-1.6510548591613772 S120.9,8.585485633194168 119.80000000000001,8.585485633194168 L119.80000000000001,8.585485633194168 z" id="svg_117"/>
		<path class="st2" d="M119.80000000000001,13.043333752929911 c-0.7000000000000004,0 -1.3,0.4127637147903443 -1.3,1.073185658454895 s0.5,1.073185658454895 1.3,1.073185658454895 c0.7000000000000004,0 1.3,-0.4127637147903443 1.3,-1.073185658454895 S120.5,13.043333752929911 119.80000000000001,13.043333752929911 L119.80000000000001,13.043333752929911 z" id="svg_118"/>
		<path class="st2" d="M135.1,6.356561573326317 c2.2,0.9080801725387575 3.1,2.9718987464904787 2,4.788059091567993 c-1.1,1.8161603450775146 -3.6,2.5591350317001345 -5.8,1.6510548591613772 c-2.2,-0.9080801725387575 -3.1,-2.9718987464904787 -2,-4.788059091567993 C130.4,6.274008830368274 132.9,5.531034143745629 135.1,6.356561573326317 L135.1,6.356561573326317 z" id="svg_119"/>
		<path class="st2" d="M130.6,14.116519411384814 c1.1,0.4127637147903443 1.4,1.3208438873291017 0.9,2.2289240598678592 c-0.5,0.9080801725387575 -1.6,1.1557384014129637 -2.7,0.7429746866226198 c-1.1,-0.4127637147903443 -1.4,-1.3208438873291017 -0.9,-2.2289240598678592 C128.4,13.951413925468643 129.5,13.621202953636384 130.6,14.116519411384814 L130.6,14.116519411384814 z" id="svg_120"/>
		<path class="st2" d="M128.2,18.079051073372085 c0.5,0.3302109718322756 0.9,0.9080801725387575 0.5,1.3208438873291017 c-0.4,0.4127637147903443 -1.1,0.7429746866226198 -1.6,0.4127637147903443 c-0.5,-0.3302109718322756 -0.9,-0.9080801725387575 -0.5,-1.3208438873291017 C127,18.079051073372085 127.69999999999999,17.831392844497913 128.2,18.079051073372085 L128.2,18.079051073372085 z" id="svg_121"/>
		<path class="st2" d="M104.30000000000001,6.356561573326317 c-2.2,1.073185658454895 -2.7,3.302109718322754 -1.6,4.870611834526063 c1.3,1.8161603450775146 4,2.2289240598678592 5.9,1.3208438873291017 c2.2,-1.073185658454895 2.7,-3.302109718322754 1.6,-4.870611834526063 C109.19999999999999,6.108903344452102 106.5,5.531034143745629 104.30000000000001,6.356561573326317 L104.30000000000001,6.356561573326317 z" id="svg_122"/>
		<path class="st2" d="M109.69999999999999,13.951413925468643 c-0.9,0.4127637147903443 -1.3,1.4859493732452393 -0.7000000000000004,2.2289240598678592 c0.5,0.7429746866226198 1.8,1.073185658454895 2.7,0.5778692007064823 c0.9,-0.4127637147903443 1.3,-1.4859493732452393 0.7000000000000004,-2.2289240598678592 C111.9,13.621202953636384 110.6,13.37354472476217 109.69999999999999,13.951413925468643 L109.69999999999999,13.951413925468643 z" id="svg_123"/>
		<path class="st2" d="M112.4,17.831392844497913 c-0.5,0.3302109718322756 -0.7000000000000004,0.9080801725387575 -0.4,1.3208438873291017 c0.4,0.4127637147903443 1.1,0.5778692007064823 1.6,0.3302109718322756 c0.5,-0.3302109718322756 0.7000000000000004,-0.9080801725387575 0.4,-1.3208438873291017 S113,17.50118187266561 112.4,17.831392844497913 L112.4,17.831392844497913 z" id="svg_124"/>
		<path class="st2" d="M119.80000000000001,64.6387981017229 c-2.3,0 -4.3,-1.6510548591613772 -4.3,-3.54976794719696 s2,-3.54976794719696 4.3,-3.54976794719696 s4.3,1.6510548591613772 4.3,3.54976794719696 C124.1,62.98774324256152 122.30000000000001,64.6387981017229 119.80000000000001,64.6387981017229 L119.80000000000001,64.6387981017229 z" id="svg_125"/>
		<path class="st2" d="M119.80000000000001,55.97076009112567 c-1.1,0 -2,-0.7429746866226198 -2,-1.6510548591613772 c0,-0.9080801725387575 0.9,-1.6510548591613772 2,-1.6510548591613772 s2,0.7429746866226198 2,1.6510548591613772 C121.80000000000001,55.22778540450307 120.9,55.97076009112567 119.80000000000001,55.97076009112567 L119.80000000000001,55.97076009112567 z" id="svg_126"/>
		<path class="st2" d="M119.80000000000001,51.51291197138997 c-0.7000000000000004,0 -1.3,-0.4127637147903443 -1.3,-1.073185658454895 c0,-0.5778692007064823 0.5,-1.073185658454895 1.3,-1.073185658454895 c0.7000000000000004,0 1.3,0.4127637147903443 1.3,1.073185658454895 C121.1,51.100148256599624 120.5,51.51291197138997 119.80000000000001,51.51291197138997 L119.80000000000001,51.51291197138997 z" id="svg_127"/>
		<path class="st2" d="M135.3,59.52052803832268 c2.2,-0.9080801725387575 2.9,-3.137004232406616 1.6,-4.870611834526063 c-1.1,-1.8161603450775146 -3.8,-2.3940295457839964 -5.9,-1.3208438873291017 c-2.2,0.9080801725387575 -2.9,3.137004232406616 -1.6,4.870611834526063 C130.6,59.85073901015494 133.3,60.428608210861455 135.3,59.52052803832268 L135.3,59.52052803832268 z" id="svg_128"/>
		<path class="st2" d="M130.2,52.0082284291384 c0.9,-0.4127637147903443 1.3,-1.4859493732452393 0.7000000000000004,-2.2289240598678592 c-0.5,-0.7429746866226198 -1.8,-1.073185658454895 -2.7,-0.5778692007064823 c-0.9,0.4127637147903443 -1.3,1.4859493732452393 -0.7000000000000004,2.2289240598678592 C128.1,52.090781172096484 129.3,52.42099214392874 130.2,52.0082284291384 L130.2,52.0082284291384 z" id="svg_129"/>
		<path class="st2" d="M127.69999999999999,48.12824951010913 c0.5,-0.3302109718322756 0.7000000000000004,-0.9080801725387575 0.5,-1.3208438873291017 c-0.4,-0.4127637147903443 -1.1,-0.5778692007064823 -1.6,-0.4127637147903443 c-0.5,0.3302109718322756 -0.7000000000000004,0.9080801725387575 -0.5,1.3208438873291017 C126.5,48.12824951010913 127.19999999999999,48.375907738983386 127.69999999999999,48.12824951010913 L127.69999999999999,48.12824951010913 z" id="svg_130"/>
		<path class="st2" d="M104.1,59.437975295364595 c-2,-1.1557384014129637 -2.5,-3.3846624612808225 -1.1,-5.035717320442199 c1.4,-1.6510548591613772 4.1,-2.063818573951721 6.1,-0.9080801725387575 c2,1.1557384014129637 2.5,3.3846624612808225 1.1,5.035717320442199 C108.80000000000001,60.1809499819872 106.1,60.428608210861455 104.1,59.437975295364595 L104.1,59.437975295364595 z" id="svg_131"/>
		<path class="st2" d="M109.9,52.25588665801257 c-0.9,-0.4127637147903443 -1.1,-1.4859493732452393 -0.5,-2.2289240598678592 c0.5,-0.7429746866226198 1.8,-0.9080801725387575 2.7,-0.4127637147903443 c0.9,0.4127637147903443 1.1,1.4859493732452393 0.5,2.2289240598678592 C112.1,52.586097629844915 111,52.751203115761 109.9,52.25588665801257 L109.9,52.25588665801257 z" id="svg_132"/>
		<path class="st2" d="M113.1,48.54101322489947 c-0.5,-0.3302109718322756 -0.7000000000000004,-0.9080801725387575 -0.4,-1.3208438873291017 c0.4,-0.4127637147903443 1.1,-0.5778692007064823 1.6,-0.3302109718322756 c0.5,0.3302109718322756 0.7000000000000004,0.9080801725387575 0.4,1.3208438873291017 C114.4,48.706118710815645 113.5,48.871224196731816 113.1,48.54101322489947 L113.1,48.54101322489947 z" id="svg_133"/>
		<path class="st2" d="M143,48.2933549960253 c1.3,-1.6510548591613772 0.7000000000000004,-3.879978919029236 -1.3,-5.035717320442199 c-2,-1.073185658454895 -4.7,-0.5778692007064823 -6.1,1.073185658454895 c-1.3,1.6510548591613772 -0.7000000000000004,3.879978919029236 1.3,5.035717320442199 C139,50.52227905589319 141.7,50.02696259814476 143,48.2933549960253 L143,48.2933549960253 z" id="svg_134"/>
		<path class="st2" d="M134.4,43.50529590445734 c0.5,-0.7429746866226198 0.4,-1.8161603450775146 -0.5,-2.2289240598678592 c-0.9,-0.4127637147903443 -2.2,-0.3302109718322756 -2.7,0.4127637147903443 c-0.5,0.7429746866226198 -0.4,1.8161603450775146 0.5,2.2289240598678592 C132.6,44.5784815629122 133.8,44.248270591079944 134.4,43.50529590445734 L134.4,43.50529590445734 z" id="svg_135"/>
		<path class="st2" d="M129.9,41.11126635867328 c0.4,-0.4127637147903443 0.2,-1.073185658454895 -0.4,-1.3208438873291017 s-1.3,-0.16510548591613777 -1.6,0.3302109718322756 s-0.2,1.073185658454895 0.4,1.3208438873291017 C128.8,41.60658281642171 129.5,41.60658281642171 129.9,41.11126635867328 L129.9,41.11126635867328 z" id="svg_136"/>
		<path class="st2" d="M97.1,48.2933549960253 c-1.3,-1.6510548591613772 -0.7000000000000004,-3.879978919029236 1.3,-5.035717320442199 c2,-1.073185658454895 4.7,-0.5778692007064823 6.1,1.073185658454895 c1.3,1.6510548591613772 0.7000000000000004,3.879978919029236 -1.3,5.035717320442199 C101.30000000000001,50.52227905589319 98.4,50.02696259814476 97.1,48.2933549960253 L97.1,48.2933549960253 z" id="svg_137"/>
		<path class="st2" d="M105.9,43.67040139037343 c-0.5,-0.7429746866226198 -0.4,-1.8161603450775146 0.5,-2.2289240598678592 c0.9,-0.4127637147903443 2.2,-0.3302109718322756 2.7,0.4127637147903443 c0.5,0.7429746866226198 0.4,1.8161603450775146 -0.5,2.2289240598678592 C107.69999999999999,44.5784815629122 106.5,44.41337607699603 105.9,43.67040139037343 L105.9,43.67040139037343 z" id="svg_138"/>
		<path class="st2" d="M110.4,41.11126635867328 c-0.4,-0.4127637147903443 -0.2,-1.073185658454895 0.4,-1.3208438873291017 c0.5,-0.3302109718322756 1.3,-0.16510548591613777 1.6,0.3302109718322756 c0.4,0.4127637147903443 0.2,1.073185658454895 -0.4,1.3208438873291017 C111.5,41.68913555937979 110.80000000000001,41.60658281642171 110.4,41.11126635867328 L110.4,41.11126635867328 z" id="svg_139"/>
		<path class="st2" d="M142.60000000000002,17.50118187266561 c1.6,1.4859493732452393 1.4,3.714873433113098 -0.4,5.035717320442199 c-1.8,1.3208438873291017 -4.5,1.1557384014129637 -6.1,-0.3302109718322756 c-1.6,-1.4859493732452393 -1.4,-3.714873433113098 0.4,-5.035717320442199 C138.3,15.850127013504235 141,16.015232499420364 142.60000000000002,17.50118187266561 L142.60000000000002,17.50118187266561 z" id="svg_140"/>
		<path class="st2" d="M134.9,23.279873879730474 c0.7000000000000004,0.7429746866226198 0.7000000000000004,1.8161603450775146 -0.2,2.3940295457839964 s-2.2,0.5778692007064823 -2.9,-0.16510548591613777 s-0.7000000000000004,-1.8161603450775146 0.2,-2.3940295457839964 C132.9,22.53689919310783 134.2,22.53689919310783 134.9,23.279873879730474 L134.9,23.279873879730474 z" id="svg_141"/>
		<path class="st2" d="M130.8,26.251772626220884 c0.4,0.4127637147903443 0.4,1.073185658454895 -0.2,1.3208438873291017 c-0.5,0.3302109718322756 -1.3,0.3302109718322756 -1.6,-0.16510548591613777 c-0.4,-0.4127637147903443 -0.4,-1.073185658454895 0.2,-1.3208438873291017 C129.7,25.83900891143054 130.4,25.83900891143054 130.8,26.251772626220884 L130.8,26.251772626220884 z" id="svg_142"/>
		<path class="st2" d="M97.30000000000001,17.831392844497913 c-1.4,1.6510548591613772 -1.1,3.879978919029236 0.9,5.035717320442199 c2,1.1557384014129637 4.7,0.9080801725387575 6.1,-0.7429746866226198 c1.4,-1.6510548591613772 1.1,-3.879978919029236 -0.9,-5.035717320442199 C101.4,15.850127013504235 98.69999999999999,16.180337985336536 97.30000000000001,17.831392844497913 L97.30000000000001,17.831392844497913 z" id="svg_143"/>
		<path class="st2" d="M105.80000000000001,22.86711016494013 c-0.7000000000000004,0.7429746866226198 -0.5,1.8161603450775146 0.4,2.3940295457839964 c0.9,0.5778692007064823 2.2,0.4127637147903443 2.9,-0.3302109718322756 s0.5,-1.8161603450775146 -0.4,-2.3940295457839964 C107.6,21.959029992401355 106.30000000000001,22.124135478317484 105.80000000000001,22.86711016494013 L105.80000000000001,22.86711016494013 z" id="svg_144"/>
		<path class="st2" d="M110.1,25.50879793959828 c-0.4,0.4127637147903443 -0.4,1.073185658454895 0.2,1.3208438873291017 s1.3,0.3302109718322756 1.6,-0.16510548591613777 c0.4,-0.4127637147903443 0.4,-1.073185658454895 -0.2,-1.3208438873291017 C111.19999999999999,25.096034224807937 110.4,25.096034224807937 110.1,25.50879793959828 L110.1,25.50879793959828 z" id="svg_145"/>
		<path class="st2" d="M145,32.85599206286639 c0,-1.8987130880355836 -2,-3.54976794719696 -4.3,-3.54976794719696 c-2.3,0 -4.3,1.6510548591613772 -4.3,3.54976794719696 s2,3.54976794719696 4.3,3.54976794719696 C143,36.4057600100634 145,34.91981063681811 145,32.85599206286639 L145,32.85599206286639 z" id="svg_146"/>
		<path class="st2" d="M134.5,32.85599206286639 c0,-0.9080801725387575 -0.9,-1.6510548591613772 -2,-1.6510548591613772 c-1.1,0 -2,0.7429746866226198 -2,1.6510548591613772 c0,0.9080801725387575 0.9,1.6510548591613772 2,1.6510548591613772 C133.6,34.42449417906977 134.5,33.68151949244708 134.5,32.85599206286639 L134.5,32.85599206286639 z" id="svg_147"/>
		<path class="st2" d="M129.1,32.85599206286639 c0,-0.5778692007064823 -0.5,-1.073185658454895 -1.3,-1.073185658454895 s-1.3,0.4127637147903443 -1.3,1.073185658454895 c0,0.5778692007064823 0.5,1.073185658454895 1.3,1.073185658454895 C128.6,33.84662497836325 129.1,33.43386126357291 129.1,32.85599206286639 L129.1,32.85599206286639 z" id="svg_148"/>
		<path class="st2" d="M95.1,32.85599206286639 c0,-1.8987130880355836 2,-3.54976794719696 4.3,-3.54976794719696 s4.3,1.6510548591613772 4.3,3.54976794719696 s-2,3.54976794719696 -4.3,3.54976794719696 C97.1,36.4057600100634 95.1,34.91981063681811 95.1,32.85599206286639 L95.1,32.85599206286639 z" id="svg_149"/>
		<path class="st2" d="M105.6,32.85599206286639 c0,-0.9080801725387575 0.9,-1.6510548591613772 2,-1.6510548591613772 c1.1,0 2,0.7429746866226198 2,1.6510548591613772 c0,0.9080801725387575 -0.9,1.6510548591613772 -2,1.6510548591613772 C106.5,34.42449417906977 105.6,33.68151949244708 105.6,32.85599206286639 L105.6,32.85599206286639 z" id="svg_150"/>
		<path class="st2" d="M111,32.85599206286639 c0,-0.5778692007064823 0.5,-1.073185658454895 1.3,-1.073185658454895 c0.7000000000000004,0 1.3,0.4127637147903443 1.3,1.073185658454895 c0,0.5778692007064823 -0.5,1.073185658454895 -1.3,1.073185658454895 C111.5,33.84662497836325 111,33.43386126357291 111,32.85599206286639 L111,32.85599206286639 z" id="svg_151"/>
	</g>
</g></g></svg>